<?xml version="1.0" encoding="utf-8" standalone="no"?>
<!DOCTYPE svg PUBLIC "-//W3C//DTD SVG 1.1//EN"
  "http://www.w3.org/Graphics/SVG/1.1/DTD/svg11.dtd">
<!-- Created with matplotlib (http://matplotlib.org/) -->
<svg height="342pt" version="1.1" viewBox="0 0 1008 342" width="1008pt" xmlns="http://www.w3.org/2000/svg" xmlns:xlink="http://www.w3.org/1999/xlink">
 <defs>
  <style type="text/css">
*{stroke-linecap:butt;stroke-linejoin:round;}
  </style>
 </defs>
 <g id="figure_1">
  <g id="patch_1">
   <path d="M 0 342 
L 1008 342 
L 1008 0 
L 0 0 
z
" style="fill:#ffffff;"/>
  </g>
  <g id="axes_1">
   <g id="patch_2">
    <path d="M 126 304.38 
L 907.2 304.38 
L 907.2 41.04 
L 126 41.04 
z
" style="fill:#ffffff;"/>
   </g>
   <g id="matplotlib.axis_1">
    <g id="xtick_1">
     <g id="line2d_1">
      <defs>
       <path d="M 0 0 
L 0 3.5 
" id="mdf9fbc21d1" style="stroke:#000000;stroke-width:0.8;"/>
      </defs>
      <g>
       <use style="stroke:#000000;stroke-width:0.8;" x="161.509091" xlink:href="#mdf9fbc21d1" y="304.38"/>
      </g>
     </g>
     <g id="text_1">
      <!-- 0.0 -->
      <defs>
       <path d="M 31.78125 66.40625 
Q 24.171875 66.40625 20.328125 58.90625 
Q 16.5 51.421875 16.5 36.375 
Q 16.5 21.390625 20.328125 13.890625 
Q 24.171875 6.390625 31.78125 6.390625 
Q 39.453125 6.390625 43.28125 13.890625 
Q 47.125 21.390625 47.125 36.375 
Q 47.125 51.421875 43.28125 58.90625 
Q 39.453125 66.40625 31.78125 66.40625 
z
M 31.78125 74.21875 
Q 44.046875 74.21875 50.515625 64.515625 
Q 56.984375 54.828125 56.984375 36.375 
Q 56.984375 17.96875 50.515625 8.265625 
Q 44.046875 -1.421875 31.78125 -1.421875 
Q 19.53125 -1.421875 13.0625 8.265625 
Q 6.59375 17.96875 6.59375 36.375 
Q 6.59375 54.828125 13.0625 64.515625 
Q 19.53125 74.21875 31.78125 74.21875 
z
" id="DejaVuSans-30"/>
       <path d="M 10.6875 12.40625 
L 21 12.40625 
L 21 0 
L 10.6875 0 
z
" id="DejaVuSans-2e"/>
      </defs>
      <g transform="translate(153.557528 318.978437)scale(0.1 -0.1)">
       <use xlink:href="#DejaVuSans-30"/>
       <use x="63.623047" xlink:href="#DejaVuSans-2e"/>
       <use x="95.410156" xlink:href="#DejaVuSans-30"/>
      </g>
     </g>
    </g>
    <g id="xtick_2">
     <g id="line2d_2">
      <g>
       <use style="stroke:#000000;stroke-width:0.8;" x="249.167965" xlink:href="#mdf9fbc21d1" y="304.38"/>
      </g>
     </g>
     <g id="text_2">
      <!-- 0.1 -->
      <defs>
       <path d="M 12.40625 8.296875 
L 28.515625 8.296875 
L 28.515625 63.921875 
L 10.984375 60.40625 
L 10.984375 69.390625 
L 28.421875 72.90625 
L 38.28125 72.90625 
L 38.28125 8.296875 
L 54.390625 8.296875 
L 54.390625 0 
L 12.40625 0 
z
" id="DejaVuSans-31"/>
      </defs>
      <g transform="translate(241.216403 318.978437)scale(0.1 -0.1)">
       <use xlink:href="#DejaVuSans-30"/>
       <use x="63.623047" xlink:href="#DejaVuSans-2e"/>
       <use x="95.410156" xlink:href="#DejaVuSans-31"/>
      </g>
     </g>
    </g>
    <g id="xtick_3">
     <g id="line2d_3">
      <g>
       <use style="stroke:#000000;stroke-width:0.8;" x="336.82684" xlink:href="#mdf9fbc21d1" y="304.38"/>
      </g>
     </g>
     <g id="text_3">
      <!-- 0.2 -->
      <defs>
       <path d="M 19.1875 8.296875 
L 53.609375 8.296875 
L 53.609375 0 
L 7.328125 0 
L 7.328125 8.296875 
Q 12.9375 14.109375 22.625 23.890625 
Q 32.328125 33.6875 34.8125 36.53125 
Q 39.546875 41.84375 41.421875 45.53125 
Q 43.3125 49.21875 43.3125 52.78125 
Q 43.3125 58.59375 39.234375 62.25 
Q 35.15625 65.921875 28.609375 65.921875 
Q 23.96875 65.921875 18.8125 64.3125 
Q 13.671875 62.703125 7.8125 59.421875 
L 7.8125 69.390625 
Q 13.765625 71.78125 18.9375 73 
Q 24.125 74.21875 28.421875 74.21875 
Q 39.75 74.21875 46.484375 68.546875 
Q 53.21875 62.890625 53.21875 53.421875 
Q 53.21875 48.921875 51.53125 44.890625 
Q 49.859375 40.875 45.40625 35.40625 
Q 44.1875 33.984375 37.640625 27.21875 
Q 31.109375 20.453125 19.1875 8.296875 
z
" id="DejaVuSans-32"/>
      </defs>
      <g transform="translate(328.875277 318.978437)scale(0.1 -0.1)">
       <use xlink:href="#DejaVuSans-30"/>
       <use x="63.623047" xlink:href="#DejaVuSans-2e"/>
       <use x="95.410156" xlink:href="#DejaVuSans-32"/>
      </g>
     </g>
    </g>
    <g id="xtick_4">
     <g id="line2d_4">
      <g>
       <use style="stroke:#000000;stroke-width:0.8;" x="424.485714" xlink:href="#mdf9fbc21d1" y="304.38"/>
      </g>
     </g>
     <g id="text_4">
      <!-- 0.3 -->
      <defs>
       <path d="M 40.578125 39.3125 
Q 47.65625 37.796875 51.625 33 
Q 55.609375 28.21875 55.609375 21.1875 
Q 55.609375 10.40625 48.1875 4.484375 
Q 40.765625 -1.421875 27.09375 -1.421875 
Q 22.515625 -1.421875 17.65625 -0.515625 
Q 12.796875 0.390625 7.625 2.203125 
L 7.625 11.71875 
Q 11.71875 9.328125 16.59375 8.109375 
Q 21.484375 6.890625 26.8125 6.890625 
Q 36.078125 6.890625 40.9375 10.546875 
Q 45.796875 14.203125 45.796875 21.1875 
Q 45.796875 27.640625 41.28125 31.265625 
Q 36.765625 34.90625 28.71875 34.90625 
L 20.21875 34.90625 
L 20.21875 43.015625 
L 29.109375 43.015625 
Q 36.375 43.015625 40.234375 45.921875 
Q 44.09375 48.828125 44.09375 54.296875 
Q 44.09375 59.90625 40.109375 62.90625 
Q 36.140625 65.921875 28.71875 65.921875 
Q 24.65625 65.921875 20.015625 65.03125 
Q 15.375 64.15625 9.8125 62.3125 
L 9.8125 71.09375 
Q 15.4375 72.65625 20.34375 73.4375 
Q 25.25 74.21875 29.59375 74.21875 
Q 40.828125 74.21875 47.359375 69.109375 
Q 53.90625 64.015625 53.90625 55.328125 
Q 53.90625 49.265625 50.4375 45.09375 
Q 46.96875 40.921875 40.578125 39.3125 
z
" id="DejaVuSans-33"/>
      </defs>
      <g transform="translate(416.534152 318.978437)scale(0.1 -0.1)">
       <use xlink:href="#DejaVuSans-30"/>
       <use x="63.623047" xlink:href="#DejaVuSans-2e"/>
       <use x="95.410156" xlink:href="#DejaVuSans-33"/>
      </g>
     </g>
    </g>
    <g id="xtick_5">
     <g id="line2d_5">
      <g>
       <use style="stroke:#000000;stroke-width:0.8;" x="512.144589" xlink:href="#mdf9fbc21d1" y="304.38"/>
      </g>
     </g>
     <g id="text_5">
      <!-- 0.4 -->
      <defs>
       <path d="M 37.796875 64.3125 
L 12.890625 25.390625 
L 37.796875 25.390625 
z
M 35.203125 72.90625 
L 47.609375 72.90625 
L 47.609375 25.390625 
L 58.015625 25.390625 
L 58.015625 17.1875 
L 47.609375 17.1875 
L 47.609375 0 
L 37.796875 0 
L 37.796875 17.1875 
L 4.890625 17.1875 
L 4.890625 26.703125 
z
" id="DejaVuSans-34"/>
      </defs>
      <g transform="translate(504.193026 318.978437)scale(0.1 -0.1)">
       <use xlink:href="#DejaVuSans-30"/>
       <use x="63.623047" xlink:href="#DejaVuSans-2e"/>
       <use x="95.410156" xlink:href="#DejaVuSans-34"/>
      </g>
     </g>
    </g>
    <g id="xtick_6">
     <g id="line2d_6">
      <g>
       <use style="stroke:#000000;stroke-width:0.8;" x="599.803463" xlink:href="#mdf9fbc21d1" y="304.38"/>
      </g>
     </g>
     <g id="text_6">
      <!-- 0.5 -->
      <defs>
       <path d="M 10.796875 72.90625 
L 49.515625 72.90625 
L 49.515625 64.59375 
L 19.828125 64.59375 
L 19.828125 46.734375 
Q 21.96875 47.46875 24.109375 47.828125 
Q 26.265625 48.1875 28.421875 48.1875 
Q 40.625 48.1875 47.75 41.5 
Q 54.890625 34.8125 54.890625 23.390625 
Q 54.890625 11.625 47.5625 5.09375 
Q 40.234375 -1.421875 26.90625 -1.421875 
Q 22.3125 -1.421875 17.546875 -0.640625 
Q 12.796875 0.140625 7.71875 1.703125 
L 7.71875 11.625 
Q 12.109375 9.234375 16.796875 8.0625 
Q 21.484375 6.890625 26.703125 6.890625 
Q 35.15625 6.890625 40.078125 11.328125 
Q 45.015625 15.765625 45.015625 23.390625 
Q 45.015625 31 40.078125 35.4375 
Q 35.15625 39.890625 26.703125 39.890625 
Q 22.75 39.890625 18.8125 39.015625 
Q 14.890625 38.140625 10.796875 36.28125 
z
" id="DejaVuSans-35"/>
      </defs>
      <g transform="translate(591.851901 318.978437)scale(0.1 -0.1)">
       <use xlink:href="#DejaVuSans-30"/>
       <use x="63.623047" xlink:href="#DejaVuSans-2e"/>
       <use x="95.410156" xlink:href="#DejaVuSans-35"/>
      </g>
     </g>
    </g>
    <g id="xtick_7">
     <g id="line2d_7">
      <g>
       <use style="stroke:#000000;stroke-width:0.8;" x="687.462338" xlink:href="#mdf9fbc21d1" y="304.38"/>
      </g>
     </g>
     <g id="text_7">
      <!-- 0.6 -->
      <defs>
       <path d="M 33.015625 40.375 
Q 26.375 40.375 22.484375 35.828125 
Q 18.609375 31.296875 18.609375 23.390625 
Q 18.609375 15.53125 22.484375 10.953125 
Q 26.375 6.390625 33.015625 6.390625 
Q 39.65625 6.390625 43.53125 10.953125 
Q 47.40625 15.53125 47.40625 23.390625 
Q 47.40625 31.296875 43.53125 35.828125 
Q 39.65625 40.375 33.015625 40.375 
z
M 52.59375 71.296875 
L 52.59375 62.3125 
Q 48.875 64.0625 45.09375 64.984375 
Q 41.3125 65.921875 37.59375 65.921875 
Q 27.828125 65.921875 22.671875 59.328125 
Q 17.53125 52.734375 16.796875 39.40625 
Q 19.671875 43.65625 24.015625 45.921875 
Q 28.375 48.1875 33.59375 48.1875 
Q 44.578125 48.1875 50.953125 41.515625 
Q 57.328125 34.859375 57.328125 23.390625 
Q 57.328125 12.15625 50.6875 5.359375 
Q 44.046875 -1.421875 33.015625 -1.421875 
Q 20.359375 -1.421875 13.671875 8.265625 
Q 6.984375 17.96875 6.984375 36.375 
Q 6.984375 53.65625 15.1875 63.9375 
Q 23.390625 74.21875 37.203125 74.21875 
Q 40.921875 74.21875 44.703125 73.484375 
Q 48.484375 72.75 52.59375 71.296875 
z
" id="DejaVuSans-36"/>
      </defs>
      <g transform="translate(679.510775 318.978437)scale(0.1 -0.1)">
       <use xlink:href="#DejaVuSans-30"/>
       <use x="63.623047" xlink:href="#DejaVuSans-2e"/>
       <use x="95.410156" xlink:href="#DejaVuSans-36"/>
      </g>
     </g>
    </g>
    <g id="xtick_8">
     <g id="line2d_8">
      <g>
       <use style="stroke:#000000;stroke-width:0.8;" x="775.121212" xlink:href="#mdf9fbc21d1" y="304.38"/>
      </g>
     </g>
     <g id="text_8">
      <!-- 0.7 -->
      <defs>
       <path d="M 8.203125 72.90625 
L 55.078125 72.90625 
L 55.078125 68.703125 
L 28.609375 0 
L 18.3125 0 
L 43.21875 64.59375 
L 8.203125 64.59375 
z
" id="DejaVuSans-37"/>
      </defs>
      <g transform="translate(767.16965 318.978437)scale(0.1 -0.1)">
       <use xlink:href="#DejaVuSans-30"/>
       <use x="63.623047" xlink:href="#DejaVuSans-2e"/>
       <use x="95.410156" xlink:href="#DejaVuSans-37"/>
      </g>
     </g>
    </g>
    <g id="xtick_9">
     <g id="line2d_9">
      <g>
       <use style="stroke:#000000;stroke-width:0.8;" x="862.780087" xlink:href="#mdf9fbc21d1" y="304.38"/>
      </g>
     </g>
     <g id="text_9">
      <!-- 0.8 -->
      <defs>
       <path d="M 31.78125 34.625 
Q 24.75 34.625 20.71875 30.859375 
Q 16.703125 27.09375 16.703125 20.515625 
Q 16.703125 13.921875 20.71875 10.15625 
Q 24.75 6.390625 31.78125 6.390625 
Q 38.8125 6.390625 42.859375 10.171875 
Q 46.921875 13.96875 46.921875 20.515625 
Q 46.921875 27.09375 42.890625 30.859375 
Q 38.875 34.625 31.78125 34.625 
z
M 21.921875 38.8125 
Q 15.578125 40.375 12.03125 44.71875 
Q 8.5 49.078125 8.5 55.328125 
Q 8.5 64.0625 14.71875 69.140625 
Q 20.953125 74.21875 31.78125 74.21875 
Q 42.671875 74.21875 48.875 69.140625 
Q 55.078125 64.0625 55.078125 55.328125 
Q 55.078125 49.078125 51.53125 44.71875 
Q 48 40.375 41.703125 38.8125 
Q 48.828125 37.15625 52.796875 32.3125 
Q 56.78125 27.484375 56.78125 20.515625 
Q 56.78125 9.90625 50.3125 4.234375 
Q 43.84375 -1.421875 31.78125 -1.421875 
Q 19.734375 -1.421875 13.25 4.234375 
Q 6.78125 9.90625 6.78125 20.515625 
Q 6.78125 27.484375 10.78125 32.3125 
Q 14.796875 37.15625 21.921875 38.8125 
z
M 18.3125 54.390625 
Q 18.3125 48.734375 21.84375 45.5625 
Q 25.390625 42.390625 31.78125 42.390625 
Q 38.140625 42.390625 41.71875 45.5625 
Q 45.3125 48.734375 45.3125 54.390625 
Q 45.3125 60.0625 41.71875 63.234375 
Q 38.140625 66.40625 31.78125 66.40625 
Q 25.390625 66.40625 21.84375 63.234375 
Q 18.3125 60.0625 18.3125 54.390625 
z
" id="DejaVuSans-38"/>
      </defs>
      <g transform="translate(854.828524 318.978437)scale(0.1 -0.1)">
       <use xlink:href="#DejaVuSans-30"/>
       <use x="63.623047" xlink:href="#DejaVuSans-2e"/>
       <use x="95.410156" xlink:href="#DejaVuSans-38"/>
      </g>
     </g>
    </g>
   </g>
   <g id="matplotlib.axis_2">
    <g id="ytick_1">
     <g id="line2d_10">
      <defs>
       <path d="M 0 0 
L -3.5 0 
" id="me9c121d0dd" style="stroke:#000000;stroke-width:0.8;"/>
      </defs>
      <g>
       <use style="stroke:#000000;stroke-width:0.8;" x="126" xlink:href="#me9c121d0dd" y="292.41"/>
      </g>
     </g>
     <g id="text_10">
      <!-- 0.0 -->
      <g transform="translate(103.096875 296.209219)scale(0.1 -0.1)">
       <use xlink:href="#DejaVuSans-30"/>
       <use x="63.623047" xlink:href="#DejaVuSans-2e"/>
       <use x="95.410156" xlink:href="#DejaVuSans-30"/>
      </g>
     </g>
    </g>
    <g id="ytick_2">
     <g id="line2d_11">
      <g>
       <use style="stroke:#000000;stroke-width:0.8;" x="126" xlink:href="#me9c121d0dd" y="244.53"/>
      </g>
     </g>
     <g id="text_11">
      <!-- 0.2 -->
      <g transform="translate(103.096875 248.329219)scale(0.1 -0.1)">
       <use xlink:href="#DejaVuSans-30"/>
       <use x="63.623047" xlink:href="#DejaVuSans-2e"/>
       <use x="95.410156" xlink:href="#DejaVuSans-32"/>
      </g>
     </g>
    </g>
    <g id="ytick_3">
     <g id="line2d_12">
      <g>
       <use style="stroke:#000000;stroke-width:0.8;" x="126" xlink:href="#me9c121d0dd" y="196.65"/>
      </g>
     </g>
     <g id="text_12">
      <!-- 0.4 -->
      <g transform="translate(103.096875 200.449219)scale(0.1 -0.1)">
       <use xlink:href="#DejaVuSans-30"/>
       <use x="63.623047" xlink:href="#DejaVuSans-2e"/>
       <use x="95.410156" xlink:href="#DejaVuSans-34"/>
      </g>
     </g>
    </g>
    <g id="ytick_4">
     <g id="line2d_13">
      <g>
       <use style="stroke:#000000;stroke-width:0.8;" x="126" xlink:href="#me9c121d0dd" y="148.77"/>
      </g>
     </g>
     <g id="text_13">
      <!-- 0.6 -->
      <g transform="translate(103.096875 152.569219)scale(0.1 -0.1)">
       <use xlink:href="#DejaVuSans-30"/>
       <use x="63.623047" xlink:href="#DejaVuSans-2e"/>
       <use x="95.410156" xlink:href="#DejaVuSans-36"/>
      </g>
     </g>
    </g>
    <g id="ytick_5">
     <g id="line2d_14">
      <g>
       <use style="stroke:#000000;stroke-width:0.8;" x="126" xlink:href="#me9c121d0dd" y="100.89"/>
      </g>
     </g>
     <g id="text_14">
      <!-- 0.8 -->
      <g transform="translate(103.096875 104.689219)scale(0.1 -0.1)">
       <use xlink:href="#DejaVuSans-30"/>
       <use x="63.623047" xlink:href="#DejaVuSans-2e"/>
       <use x="95.410156" xlink:href="#DejaVuSans-38"/>
      </g>
     </g>
    </g>
    <g id="ytick_6">
     <g id="line2d_15">
      <g>
       <use style="stroke:#000000;stroke-width:0.8;" x="126" xlink:href="#me9c121d0dd" y="53.01"/>
      </g>
     </g>
     <g id="text_15">
      <!-- 1.0 -->
      <g transform="translate(103.096875 56.809219)scale(0.1 -0.1)">
       <use xlink:href="#DejaVuSans-31"/>
       <use x="63.623047" xlink:href="#DejaVuSans-2e"/>
       <use x="95.410156" xlink:href="#DejaVuSans-30"/>
      </g>
     </g>
    </g>
   </g>
   <g id="line2d_16">
    <path clip-path="url(#p23f55803b2)" d="M 161.509091 282.623208 
L 179.223377 201.317547 
L 194.790476 270.95434 
L 209.820779 292.41 
L 432.054545 285.258113 
L 443.327273 281.117547 
L 450.305628 266.437358 
L 463.188745 284.505283 
L 479.292641 223.902453 
L 495.396537 251.00434 
L 515.794805 215.621321 
L 540.487446 254.768491 
L 565.716883 213.36283 
L 596.851082 158.029811 
L 626.911688 183.626038 
L 661.266667 208.093019 
L 701.526407 162.923208 
L 742.85974 187.390189 
L 787.950649 141.843962 
L 831.431169 53.01 
L 871.690909 158.029811 
" style="fill:none;stroke:#1f77b4;stroke-linecap:square;stroke-width:1.5;"/>
   </g>
   <g id="line2d_17">
    <defs>
     <path d="M 0 3 
C 0.795609 3 1.55874 2.683901 2.12132 2.12132 
C 2.683901 1.55874 3 0.795609 3 0 
C 3 -0.795609 2.683901 -1.55874 2.12132 -2.12132 
C 1.55874 -2.683901 0.795609 -3 0 -3 
C -0.795609 -3 -1.55874 -2.683901 -2.12132 -2.12132 
C -2.683901 -1.55874 -3 -0.795609 -3 0 
C -3 0.795609 -2.683901 1.55874 -2.12132 2.12132 
C -1.55874 2.683901 -0.795609 3 0 3 
z
" id="m0ec29ec796" style="stroke:#ff7f0e;"/>
    </defs>
    <g clip-path="url(#p23f55803b2)">
     <use style="fill:#ff7f0e;stroke:#ff7f0e;" x="161.509091" xlink:href="#m0ec29ec796" y="282.623208"/>
     <use style="fill:#ff7f0e;stroke:#ff7f0e;" x="179.223377" xlink:href="#m0ec29ec796" y="201.317547"/>
     <use style="fill:#ff7f0e;stroke:#ff7f0e;" x="194.790476" xlink:href="#m0ec29ec796" y="270.95434"/>
     <use style="fill:#ff7f0e;stroke:#ff7f0e;" x="209.820779" xlink:href="#m0ec29ec796" y="292.41"/>
     <use style="fill:#ff7f0e;stroke:#ff7f0e;" x="432.054545" xlink:href="#m0ec29ec796" y="285.258113"/>
     <use style="fill:#ff7f0e;stroke:#ff7f0e;" x="443.327273" xlink:href="#m0ec29ec796" y="281.117547"/>
     <use style="fill:#ff7f0e;stroke:#ff7f0e;" x="450.305628" xlink:href="#m0ec29ec796" y="266.437358"/>
     <use style="fill:#ff7f0e;stroke:#ff7f0e;" x="463.188745" xlink:href="#m0ec29ec796" y="284.505283"/>
     <use style="fill:#ff7f0e;stroke:#ff7f0e;" x="479.292641" xlink:href="#m0ec29ec796" y="223.902453"/>
     <use style="fill:#ff7f0e;stroke:#ff7f0e;" x="495.396537" xlink:href="#m0ec29ec796" y="251.00434"/>
     <use style="fill:#ff7f0e;stroke:#ff7f0e;" x="515.794805" xlink:href="#m0ec29ec796" y="215.621321"/>
     <use style="fill:#ff7f0e;stroke:#ff7f0e;" x="540.487446" xlink:href="#m0ec29ec796" y="254.768491"/>
     <use style="fill:#ff7f0e;stroke:#ff7f0e;" x="565.716883" xlink:href="#m0ec29ec796" y="213.36283"/>
     <use style="fill:#ff7f0e;stroke:#ff7f0e;" x="596.851082" xlink:href="#m0ec29ec796" y="158.029811"/>
     <use style="fill:#ff7f0e;stroke:#ff7f0e;" x="626.911688" xlink:href="#m0ec29ec796" y="183.626038"/>
     <use style="fill:#ff7f0e;stroke:#ff7f0e;" x="661.266667" xlink:href="#m0ec29ec796" y="208.093019"/>
     <use style="fill:#ff7f0e;stroke:#ff7f0e;" x="701.526407" xlink:href="#m0ec29ec796" y="162.923208"/>
     <use style="fill:#ff7f0e;stroke:#ff7f0e;" x="742.85974" xlink:href="#m0ec29ec796" y="187.390189"/>
     <use style="fill:#ff7f0e;stroke:#ff7f0e;" x="787.950649" xlink:href="#m0ec29ec796" y="141.843962"/>
     <use style="fill:#ff7f0e;stroke:#ff7f0e;" x="831.431169" xlink:href="#m0ec29ec796" y="53.01"/>
     <use style="fill:#ff7f0e;stroke:#ff7f0e;" x="871.690909" xlink:href="#m0ec29ec796" y="158.029811"/>
    </g>
   </g>
   <g id="line2d_18">
    <path clip-path="url(#p23f55803b2)" d="M 161.509091 277.264783 
L 179.223377 285.730675 
L 194.790476 286.502147 
L 209.820779 289.141394 
L 432.054545 292.41 
L 443.327273 262.281981 
L 450.305628 258.444922 
L 463.188745 244.111781 
L 479.292641 240.15291 
L 495.396537 219.485577 
L 515.794805 195.651147 
L 540.487446 198.412205 
L 565.716883 197.559525 
L 596.851082 234.042039 
L 626.911688 222.469956 
L 661.266667 125.853216 
L 701.526407 53.01 
L 742.85974 55.080794 
" style="fill:none;stroke:#2ca02c;stroke-linecap:square;stroke-width:1.5;"/>
   </g>
   <g id="line2d_19">
    <defs>
     <path d="M 0 -3 
L -3 3 
L 3 3 
z
" id="m883a9aa2b0" style="stroke:#d62728;stroke-linejoin:miter;"/>
    </defs>
    <g clip-path="url(#p23f55803b2)">
     <use style="fill:#d62728;stroke:#d62728;stroke-linejoin:miter;" x="161.509091" xlink:href="#m883a9aa2b0" y="277.264783"/>
     <use style="fill:#d62728;stroke:#d62728;stroke-linejoin:miter;" x="179.223377" xlink:href="#m883a9aa2b0" y="285.730675"/>
     <use style="fill:#d62728;stroke:#d62728;stroke-linejoin:miter;" x="194.790476" xlink:href="#m883a9aa2b0" y="286.502147"/>
     <use style="fill:#d62728;stroke:#d62728;stroke-linejoin:miter;" x="209.820779" xlink:href="#m883a9aa2b0" y="289.141394"/>
     <use style="fill:#d62728;stroke:#d62728;stroke-linejoin:miter;" x="432.054545" xlink:href="#m883a9aa2b0" y="292.41"/>
     <use style="fill:#d62728;stroke:#d62728;stroke-linejoin:miter;" x="443.327273" xlink:href="#m883a9aa2b0" y="262.281981"/>
     <use style="fill:#d62728;stroke:#d62728;stroke-linejoin:miter;" x="450.305628" xlink:href="#m883a9aa2b0" y="258.444922"/>
     <use style="fill:#d62728;stroke:#d62728;stroke-linejoin:miter;" x="463.188745" xlink:href="#m883a9aa2b0" y="244.111781"/>
     <use style="fill:#d62728;stroke:#d62728;stroke-linejoin:miter;" x="479.292641" xlink:href="#m883a9aa2b0" y="240.15291"/>
     <use style="fill:#d62728;stroke:#d62728;stroke-linejoin:miter;" x="495.396537" xlink:href="#m883a9aa2b0" y="219.485577"/>
     <use style="fill:#d62728;stroke:#d62728;stroke-linejoin:miter;" x="515.794805" xlink:href="#m883a9aa2b0" y="195.651147"/>
     <use style="fill:#d62728;stroke:#d62728;stroke-linejoin:miter;" x="540.487446" xlink:href="#m883a9aa2b0" y="198.412205"/>
     <use style="fill:#d62728;stroke:#d62728;stroke-linejoin:miter;" x="565.716883" xlink:href="#m883a9aa2b0" y="197.559525"/>
     <use style="fill:#d62728;stroke:#d62728;stroke-linejoin:miter;" x="596.851082" xlink:href="#m883a9aa2b0" y="234.042039"/>
     <use style="fill:#d62728;stroke:#d62728;stroke-linejoin:miter;" x="626.911688" xlink:href="#m883a9aa2b0" y="222.469956"/>
     <use style="fill:#d62728;stroke:#d62728;stroke-linejoin:miter;" x="661.266667" xlink:href="#m883a9aa2b0" y="125.853216"/>
     <use style="fill:#d62728;stroke:#d62728;stroke-linejoin:miter;" x="701.526407" xlink:href="#m883a9aa2b0" y="53.01"/>
     <use style="fill:#d62728;stroke:#d62728;stroke-linejoin:miter;" x="742.85974" xlink:href="#m883a9aa2b0" y="55.080794"/>
    </g>
   </g>
   <g id="patch_3">
    <path d="M 126 304.38 
L 126 41.04 
" style="fill:none;stroke:#000000;stroke-linecap:square;stroke-linejoin:miter;stroke-width:0.8;"/>
   </g>
   <g id="patch_4">
    <path d="M 907.2 304.38 
L 907.2 41.04 
" style="fill:none;stroke:#000000;stroke-linecap:square;stroke-linejoin:miter;stroke-width:0.8;"/>
   </g>
   <g id="patch_5">
    <path d="M 126 304.38 
L 907.2 304.38 
" style="fill:none;stroke:#000000;stroke-linecap:square;stroke-linejoin:miter;stroke-width:0.8;"/>
   </g>
   <g id="patch_6">
    <path d="M 126 41.04 
L 907.2 41.04 
" style="fill:none;stroke:#000000;stroke-linecap:square;stroke-linejoin:miter;stroke-width:0.8;"/>
   </g>
  </g>
 </g>
 <defs>
  <clipPath id="p23f55803b2">
   <rect height="263.34" width="781.2" x="126" y="41.04"/>
  </clipPath>
 </defs>
</svg>
