<?xml version="1.0" encoding="utf-8" standalone="no"?>
<!DOCTYPE svg PUBLIC "-//W3C//DTD SVG 1.1//EN"
  "http://www.w3.org/Graphics/SVG/1.1/DTD/svg11.dtd">
<!-- Created with matplotlib (http://matplotlib.org/) -->
<svg height="342pt" version="1.1" viewBox="0 0 1008 342" width="1008pt" xmlns="http://www.w3.org/2000/svg" xmlns:xlink="http://www.w3.org/1999/xlink">
 <defs>
  <style type="text/css">
*{stroke-linecap:butt;stroke-linejoin:round;}
  </style>
 </defs>
 <g id="figure_1">
  <g id="patch_1">
   <path d="M 0 342 
L 1008 342 
L 1008 0 
L 0 0 
z
" style="fill:#ffffff;"/>
  </g>
  <g id="axes_1">
   <g id="patch_2">
    <path d="M 126 304.38 
L 907.2 304.38 
L 907.2 41.04 
L 126 41.04 
z
" style="fill:#ffffff;"/>
   </g>
   <g id="matplotlib.axis_1">
    <g id="xtick_1">
     <g id="line2d_1">
      <defs>
       <path d="M 0 0 
L 0 3.5 
" id="mbdaa069bad" style="stroke:#000000;stroke-width:0.8;"/>
      </defs>
      <g>
       <use style="stroke:#000000;stroke-width:0.8;" x="161.509091" xlink:href="#mbdaa069bad" y="304.38"/>
      </g>
     </g>
     <g id="text_1">
      <!-- 0.0 -->
      <defs>
       <path d="M 31.78125 66.40625 
Q 24.171875 66.40625 20.328125 58.90625 
Q 16.5 51.421875 16.5 36.375 
Q 16.5 21.390625 20.328125 13.890625 
Q 24.171875 6.390625 31.78125 6.390625 
Q 39.453125 6.390625 43.28125 13.890625 
Q 47.125 21.390625 47.125 36.375 
Q 47.125 51.421875 43.28125 58.90625 
Q 39.453125 66.40625 31.78125 66.40625 
z
M 31.78125 74.21875 
Q 44.046875 74.21875 50.515625 64.515625 
Q 56.984375 54.828125 56.984375 36.375 
Q 56.984375 17.96875 50.515625 8.265625 
Q 44.046875 -1.421875 31.78125 -1.421875 
Q 19.53125 -1.421875 13.0625 8.265625 
Q 6.59375 17.96875 6.59375 36.375 
Q 6.59375 54.828125 13.0625 64.515625 
Q 19.53125 74.21875 31.78125 74.21875 
z
" id="DejaVuSans-30"/>
       <path d="M 10.6875 12.40625 
L 21 12.40625 
L 21 0 
L 10.6875 0 
z
" id="DejaVuSans-2e"/>
      </defs>
      <g transform="translate(153.557528 318.978437)scale(0.1 -0.1)">
       <use xlink:href="#DejaVuSans-30"/>
       <use x="63.623047" xlink:href="#DejaVuSans-2e"/>
       <use x="95.410156" xlink:href="#DejaVuSans-30"/>
      </g>
     </g>
    </g>
    <g id="xtick_2">
     <g id="line2d_2">
      <g>
       <use style="stroke:#000000;stroke-width:0.8;" x="303.545455" xlink:href="#mbdaa069bad" y="304.38"/>
      </g>
     </g>
     <g id="text_2">
      <!-- 0.2 -->
      <defs>
       <path d="M 19.1875 8.296875 
L 53.609375 8.296875 
L 53.609375 0 
L 7.328125 0 
L 7.328125 8.296875 
Q 12.9375 14.109375 22.625 23.890625 
Q 32.328125 33.6875 34.8125 36.53125 
Q 39.546875 41.84375 41.421875 45.53125 
Q 43.3125 49.21875 43.3125 52.78125 
Q 43.3125 58.59375 39.234375 62.25 
Q 35.15625 65.921875 28.609375 65.921875 
Q 23.96875 65.921875 18.8125 64.3125 
Q 13.671875 62.703125 7.8125 59.421875 
L 7.8125 69.390625 
Q 13.765625 71.78125 18.9375 73 
Q 24.125 74.21875 28.421875 74.21875 
Q 39.75 74.21875 46.484375 68.546875 
Q 53.21875 62.890625 53.21875 53.421875 
Q 53.21875 48.921875 51.53125 44.890625 
Q 49.859375 40.875 45.40625 35.40625 
Q 44.1875 33.984375 37.640625 27.21875 
Q 31.109375 20.453125 19.1875 8.296875 
z
" id="DejaVuSans-32"/>
      </defs>
      <g transform="translate(295.593892 318.978437)scale(0.1 -0.1)">
       <use xlink:href="#DejaVuSans-30"/>
       <use x="63.623047" xlink:href="#DejaVuSans-2e"/>
       <use x="95.410156" xlink:href="#DejaVuSans-32"/>
      </g>
     </g>
    </g>
    <g id="xtick_3">
     <g id="line2d_3">
      <g>
       <use style="stroke:#000000;stroke-width:0.8;" x="445.581818" xlink:href="#mbdaa069bad" y="304.38"/>
      </g>
     </g>
     <g id="text_3">
      <!-- 0.4 -->
      <defs>
       <path d="M 37.796875 64.3125 
L 12.890625 25.390625 
L 37.796875 25.390625 
z
M 35.203125 72.90625 
L 47.609375 72.90625 
L 47.609375 25.390625 
L 58.015625 25.390625 
L 58.015625 17.1875 
L 47.609375 17.1875 
L 47.609375 0 
L 37.796875 0 
L 37.796875 17.1875 
L 4.890625 17.1875 
L 4.890625 26.703125 
z
" id="DejaVuSans-34"/>
      </defs>
      <g transform="translate(437.630256 318.978437)scale(0.1 -0.1)">
       <use xlink:href="#DejaVuSans-30"/>
       <use x="63.623047" xlink:href="#DejaVuSans-2e"/>
       <use x="95.410156" xlink:href="#DejaVuSans-34"/>
      </g>
     </g>
    </g>
    <g id="xtick_4">
     <g id="line2d_4">
      <g>
       <use style="stroke:#000000;stroke-width:0.8;" x="587.618182" xlink:href="#mbdaa069bad" y="304.38"/>
      </g>
     </g>
     <g id="text_4">
      <!-- 0.6 -->
      <defs>
       <path d="M 33.015625 40.375 
Q 26.375 40.375 22.484375 35.828125 
Q 18.609375 31.296875 18.609375 23.390625 
Q 18.609375 15.53125 22.484375 10.953125 
Q 26.375 6.390625 33.015625 6.390625 
Q 39.65625 6.390625 43.53125 10.953125 
Q 47.40625 15.53125 47.40625 23.390625 
Q 47.40625 31.296875 43.53125 35.828125 
Q 39.65625 40.375 33.015625 40.375 
z
M 52.59375 71.296875 
L 52.59375 62.3125 
Q 48.875 64.0625 45.09375 64.984375 
Q 41.3125 65.921875 37.59375 65.921875 
Q 27.828125 65.921875 22.671875 59.328125 
Q 17.53125 52.734375 16.796875 39.40625 
Q 19.671875 43.65625 24.015625 45.921875 
Q 28.375 48.1875 33.59375 48.1875 
Q 44.578125 48.1875 50.953125 41.515625 
Q 57.328125 34.859375 57.328125 23.390625 
Q 57.328125 12.15625 50.6875 5.359375 
Q 44.046875 -1.421875 33.015625 -1.421875 
Q 20.359375 -1.421875 13.671875 8.265625 
Q 6.984375 17.96875 6.984375 36.375 
Q 6.984375 53.65625 15.1875 63.9375 
Q 23.390625 74.21875 37.203125 74.21875 
Q 40.921875 74.21875 44.703125 73.484375 
Q 48.484375 72.75 52.59375 71.296875 
z
" id="DejaVuSans-36"/>
      </defs>
      <g transform="translate(579.666619 318.978437)scale(0.1 -0.1)">
       <use xlink:href="#DejaVuSans-30"/>
       <use x="63.623047" xlink:href="#DejaVuSans-2e"/>
       <use x="95.410156" xlink:href="#DejaVuSans-36"/>
      </g>
     </g>
    </g>
    <g id="xtick_5">
     <g id="line2d_5">
      <g>
       <use style="stroke:#000000;stroke-width:0.8;" x="729.654545" xlink:href="#mbdaa069bad" y="304.38"/>
      </g>
     </g>
     <g id="text_5">
      <!-- 0.8 -->
      <defs>
       <path d="M 31.78125 34.625 
Q 24.75 34.625 20.71875 30.859375 
Q 16.703125 27.09375 16.703125 20.515625 
Q 16.703125 13.921875 20.71875 10.15625 
Q 24.75 6.390625 31.78125 6.390625 
Q 38.8125 6.390625 42.859375 10.171875 
Q 46.921875 13.96875 46.921875 20.515625 
Q 46.921875 27.09375 42.890625 30.859375 
Q 38.875 34.625 31.78125 34.625 
z
M 21.921875 38.8125 
Q 15.578125 40.375 12.03125 44.71875 
Q 8.5 49.078125 8.5 55.328125 
Q 8.5 64.0625 14.71875 69.140625 
Q 20.953125 74.21875 31.78125 74.21875 
Q 42.671875 74.21875 48.875 69.140625 
Q 55.078125 64.0625 55.078125 55.328125 
Q 55.078125 49.078125 51.53125 44.71875 
Q 48 40.375 41.703125 38.8125 
Q 48.828125 37.15625 52.796875 32.3125 
Q 56.78125 27.484375 56.78125 20.515625 
Q 56.78125 9.90625 50.3125 4.234375 
Q 43.84375 -1.421875 31.78125 -1.421875 
Q 19.734375 -1.421875 13.25 4.234375 
Q 6.78125 9.90625 6.78125 20.515625 
Q 6.78125 27.484375 10.78125 32.3125 
Q 14.796875 37.15625 21.921875 38.8125 
z
M 18.3125 54.390625 
Q 18.3125 48.734375 21.84375 45.5625 
Q 25.390625 42.390625 31.78125 42.390625 
Q 38.140625 42.390625 41.71875 45.5625 
Q 45.3125 48.734375 45.3125 54.390625 
Q 45.3125 60.0625 41.71875 63.234375 
Q 38.140625 66.40625 31.78125 66.40625 
Q 25.390625 66.40625 21.84375 63.234375 
Q 18.3125 60.0625 18.3125 54.390625 
z
" id="DejaVuSans-38"/>
      </defs>
      <g transform="translate(721.702983 318.978437)scale(0.1 -0.1)">
       <use xlink:href="#DejaVuSans-30"/>
       <use x="63.623047" xlink:href="#DejaVuSans-2e"/>
       <use x="95.410156" xlink:href="#DejaVuSans-38"/>
      </g>
     </g>
    </g>
    <g id="xtick_6">
     <g id="line2d_6">
      <g>
       <use style="stroke:#000000;stroke-width:0.8;" x="871.690909" xlink:href="#mbdaa069bad" y="304.38"/>
      </g>
     </g>
     <g id="text_6">
      <!-- 1.0 -->
      <defs>
       <path d="M 12.40625 8.296875 
L 28.515625 8.296875 
L 28.515625 63.921875 
L 10.984375 60.40625 
L 10.984375 69.390625 
L 28.421875 72.90625 
L 38.28125 72.90625 
L 38.28125 8.296875 
L 54.390625 8.296875 
L 54.390625 0 
L 12.40625 0 
z
" id="DejaVuSans-31"/>
      </defs>
      <g transform="translate(863.739347 318.978437)scale(0.1 -0.1)">
       <use xlink:href="#DejaVuSans-31"/>
       <use x="63.623047" xlink:href="#DejaVuSans-2e"/>
       <use x="95.410156" xlink:href="#DejaVuSans-30"/>
      </g>
     </g>
    </g>
   </g>
   <g id="matplotlib.axis_2">
    <g id="ytick_1">
     <g id="line2d_7">
      <defs>
       <path d="M 0 0 
L -3.5 0 
" id="m4bbb99ac86" style="stroke:#000000;stroke-width:0.8;"/>
      </defs>
      <g>
       <use style="stroke:#000000;stroke-width:0.8;" x="126" xlink:href="#m4bbb99ac86" y="292.41"/>
      </g>
     </g>
     <g id="text_7">
      <!-- 0.0 -->
      <g transform="translate(103.096875 296.209219)scale(0.1 -0.1)">
       <use xlink:href="#DejaVuSans-30"/>
       <use x="63.623047" xlink:href="#DejaVuSans-2e"/>
       <use x="95.410156" xlink:href="#DejaVuSans-30"/>
      </g>
     </g>
    </g>
    <g id="ytick_2">
     <g id="line2d_8">
      <g>
       <use style="stroke:#000000;stroke-width:0.8;" x="126" xlink:href="#m4bbb99ac86" y="244.53"/>
      </g>
     </g>
     <g id="text_8">
      <!-- 0.2 -->
      <g transform="translate(103.096875 248.329219)scale(0.1 -0.1)">
       <use xlink:href="#DejaVuSans-30"/>
       <use x="63.623047" xlink:href="#DejaVuSans-2e"/>
       <use x="95.410156" xlink:href="#DejaVuSans-32"/>
      </g>
     </g>
    </g>
    <g id="ytick_3">
     <g id="line2d_9">
      <g>
       <use style="stroke:#000000;stroke-width:0.8;" x="126" xlink:href="#m4bbb99ac86" y="196.65"/>
      </g>
     </g>
     <g id="text_9">
      <!-- 0.4 -->
      <g transform="translate(103.096875 200.449219)scale(0.1 -0.1)">
       <use xlink:href="#DejaVuSans-30"/>
       <use x="63.623047" xlink:href="#DejaVuSans-2e"/>
       <use x="95.410156" xlink:href="#DejaVuSans-34"/>
      </g>
     </g>
    </g>
    <g id="ytick_4">
     <g id="line2d_10">
      <g>
       <use style="stroke:#000000;stroke-width:0.8;" x="126" xlink:href="#m4bbb99ac86" y="148.77"/>
      </g>
     </g>
     <g id="text_10">
      <!-- 0.6 -->
      <g transform="translate(103.096875 152.569219)scale(0.1 -0.1)">
       <use xlink:href="#DejaVuSans-30"/>
       <use x="63.623047" xlink:href="#DejaVuSans-2e"/>
       <use x="95.410156" xlink:href="#DejaVuSans-36"/>
      </g>
     </g>
    </g>
    <g id="ytick_5">
     <g id="line2d_11">
      <g>
       <use style="stroke:#000000;stroke-width:0.8;" x="126" xlink:href="#m4bbb99ac86" y="100.89"/>
      </g>
     </g>
     <g id="text_11">
      <!-- 0.8 -->
      <g transform="translate(103.096875 104.689219)scale(0.1 -0.1)">
       <use xlink:href="#DejaVuSans-30"/>
       <use x="63.623047" xlink:href="#DejaVuSans-2e"/>
       <use x="95.410156" xlink:href="#DejaVuSans-38"/>
      </g>
     </g>
    </g>
    <g id="ytick_6">
     <g id="line2d_12">
      <g>
       <use style="stroke:#000000;stroke-width:0.8;" x="126" xlink:href="#m4bbb99ac86" y="53.01"/>
      </g>
     </g>
     <g id="text_12">
      <!-- 1.0 -->
      <g transform="translate(103.096875 56.809219)scale(0.1 -0.1)">
       <use xlink:href="#DejaVuSans-31"/>
       <use x="63.623047" xlink:href="#DejaVuSans-2e"/>
       <use x="95.410156" xlink:href="#DejaVuSans-30"/>
      </g>
     </g>
    </g>
   </g>
   <g id="line2d_13">
    <path clip-path="url(#p159e352a5d)" d="M 161.509091 187.390189 
L 161.509091 162.923208 
L 241.57861 141.843962 
L 258.985027 183.626038 
L 265.947594 53.01 
L 290.316578 158.029811 
M 318.166845 208.093019 
L 328.610695 158.029811 
M 408.680214 213.36283 
M 478.305882 254.768491 
L 534.006417 215.621321 
L 589.706952 251.00434 
L 638.44492 223.902453 
L 669.776471 284.505283 
L 701.108021 266.437358 
L 739.402139 281.117547 
L 774.214973 285.258113 
L 822.952941 292.41 
L 843.840642 270.95434 
L 861.247059 201.317547 
L 871.690909 282.623208 
" style="fill:none;stroke:#1f77b4;stroke-linecap:square;stroke-width:1.5;"/>
   </g>
   <g id="line2d_14">
    <defs>
     <path d="M 0 3 
C 0.795609 3 1.55874 2.683901 2.12132 2.12132 
C 2.683901 1.55874 3 0.795609 3 0 
C 3 -0.795609 2.683901 -1.55874 2.12132 -2.12132 
C 1.55874 -2.683901 0.795609 -3 0 -3 
C -0.795609 -3 -1.55874 -2.683901 -2.12132 -2.12132 
C -2.683901 -1.55874 -3 -0.795609 -3 0 
C -3 0.795609 -2.683901 1.55874 -2.12132 2.12132 
C -1.55874 2.683901 -0.795609 3 0 3 
z
" id="madd240a7ef" style="stroke:#ff7f0e;"/>
    </defs>
    <g clip-path="url(#p159e352a5d)">
     <use style="fill:#ff7f0e;stroke:#ff7f0e;" x="161.509091" xlink:href="#madd240a7ef" y="187.390189"/>
     <use style="fill:#ff7f0e;stroke:#ff7f0e;" x="161.509091" xlink:href="#madd240a7ef" y="162.923208"/>
     <use style="fill:#ff7f0e;stroke:#ff7f0e;" x="241.57861" xlink:href="#madd240a7ef" y="141.843962"/>
     <use style="fill:#ff7f0e;stroke:#ff7f0e;" x="258.985027" xlink:href="#madd240a7ef" y="183.626038"/>
     <use style="fill:#ff7f0e;stroke:#ff7f0e;" x="265.947594" xlink:href="#madd240a7ef" y="53.01"/>
     <use style="fill:#ff7f0e;stroke:#ff7f0e;" x="290.316578" xlink:href="#madd240a7ef" y="158.029811"/>
     <use style="fill:#ff7f0e;stroke:#ff7f0e;" x="318.166845" xlink:href="#madd240a7ef" y="208.093019"/>
     <use style="fill:#ff7f0e;stroke:#ff7f0e;" x="328.610695" xlink:href="#madd240a7ef" y="158.029811"/>
     <use style="fill:#ff7f0e;stroke:#ff7f0e;" x="408.680214" xlink:href="#madd240a7ef" y="213.36283"/>
     <use style="fill:#ff7f0e;stroke:#ff7f0e;" x="478.305882" xlink:href="#madd240a7ef" y="254.768491"/>
     <use style="fill:#ff7f0e;stroke:#ff7f0e;" x="534.006417" xlink:href="#madd240a7ef" y="215.621321"/>
     <use style="fill:#ff7f0e;stroke:#ff7f0e;" x="589.706952" xlink:href="#madd240a7ef" y="251.00434"/>
     <use style="fill:#ff7f0e;stroke:#ff7f0e;" x="638.44492" xlink:href="#madd240a7ef" y="223.902453"/>
     <use style="fill:#ff7f0e;stroke:#ff7f0e;" x="669.776471" xlink:href="#madd240a7ef" y="284.505283"/>
     <use style="fill:#ff7f0e;stroke:#ff7f0e;" x="701.108021" xlink:href="#madd240a7ef" y="266.437358"/>
     <use style="fill:#ff7f0e;stroke:#ff7f0e;" x="739.402139" xlink:href="#madd240a7ef" y="281.117547"/>
     <use style="fill:#ff7f0e;stroke:#ff7f0e;" x="774.214973" xlink:href="#madd240a7ef" y="285.258113"/>
     <use style="fill:#ff7f0e;stroke:#ff7f0e;" x="822.952941" xlink:href="#madd240a7ef" y="292.41"/>
     <use style="fill:#ff7f0e;stroke:#ff7f0e;" x="843.840642" xlink:href="#madd240a7ef" y="270.95434"/>
     <use style="fill:#ff7f0e;stroke:#ff7f0e;" x="861.247059" xlink:href="#madd240a7ef" y="201.317547"/>
     <use style="fill:#ff7f0e;stroke:#ff7f0e;" x="871.690909" xlink:href="#madd240a7ef" y="282.623208"/>
    </g>
   </g>
   <g id="line2d_15">
    <path clip-path="url(#p159e352a5d)" d="M 161.509091 155.029729 
L 161.509091 154.24254 
L 241.57861 108.805975 
L 258.985027 236.645512 
L 265.947594 53.01 
L 290.316578 60.582761 
M 318.166845 193.176921 
L 328.610695 250.594506 
M 408.680214 223.357757 
M 478.305882 222.098255 
L 534.006417 219.673712 
L 589.706952 238.188403 
L 638.44492 252.184628 
L 669.776471 255.963137 
L 701.108021 265.015813 
L 739.402139 270.762295 
L 774.214973 292.41 
L 822.952941 289.04083 
L 843.840642 286.269924 
L 861.247059 284.207488 
L 871.690909 279.500096 
" style="fill:none;stroke:#2ca02c;stroke-linecap:square;stroke-width:1.5;"/>
   </g>
   <g id="line2d_16">
    <defs>
     <path d="M 0 -3 
L -3 3 
L 3 3 
z
" id="mcbb72cf91f" style="stroke:#d62728;stroke-linejoin:miter;"/>
    </defs>
    <g clip-path="url(#p159e352a5d)">
     <use style="fill:#d62728;stroke:#d62728;stroke-linejoin:miter;" x="161.509091" xlink:href="#mcbb72cf91f" y="155.029729"/>
     <use style="fill:#d62728;stroke:#d62728;stroke-linejoin:miter;" x="161.509091" xlink:href="#mcbb72cf91f" y="154.24254"/>
     <use style="fill:#d62728;stroke:#d62728;stroke-linejoin:miter;" x="241.57861" xlink:href="#mcbb72cf91f" y="108.805975"/>
     <use style="fill:#d62728;stroke:#d62728;stroke-linejoin:miter;" x="258.985027" xlink:href="#mcbb72cf91f" y="236.645512"/>
     <use style="fill:#d62728;stroke:#d62728;stroke-linejoin:miter;" x="265.947594" xlink:href="#mcbb72cf91f" y="53.01"/>
     <use style="fill:#d62728;stroke:#d62728;stroke-linejoin:miter;" x="290.316578" xlink:href="#mcbb72cf91f" y="60.582761"/>
     <use style="fill:#d62728;stroke:#d62728;stroke-linejoin:miter;" x="318.166845" xlink:href="#mcbb72cf91f" y="193.176921"/>
     <use style="fill:#d62728;stroke:#d62728;stroke-linejoin:miter;" x="328.610695" xlink:href="#mcbb72cf91f" y="250.594506"/>
     <use style="fill:#d62728;stroke:#d62728;stroke-linejoin:miter;" x="408.680214" xlink:href="#mcbb72cf91f" y="223.357757"/>
     <use style="fill:#d62728;stroke:#d62728;stroke-linejoin:miter;" x="478.305882" xlink:href="#mcbb72cf91f" y="222.098255"/>
     <use style="fill:#d62728;stroke:#d62728;stroke-linejoin:miter;" x="534.006417" xlink:href="#mcbb72cf91f" y="219.673712"/>
     <use style="fill:#d62728;stroke:#d62728;stroke-linejoin:miter;" x="589.706952" xlink:href="#mcbb72cf91f" y="238.188403"/>
     <use style="fill:#d62728;stroke:#d62728;stroke-linejoin:miter;" x="638.44492" xlink:href="#mcbb72cf91f" y="252.184628"/>
     <use style="fill:#d62728;stroke:#d62728;stroke-linejoin:miter;" x="669.776471" xlink:href="#mcbb72cf91f" y="255.963137"/>
     <use style="fill:#d62728;stroke:#d62728;stroke-linejoin:miter;" x="701.108021" xlink:href="#mcbb72cf91f" y="265.015813"/>
     <use style="fill:#d62728;stroke:#d62728;stroke-linejoin:miter;" x="739.402139" xlink:href="#mcbb72cf91f" y="270.762295"/>
     <use style="fill:#d62728;stroke:#d62728;stroke-linejoin:miter;" x="774.214973" xlink:href="#mcbb72cf91f" y="292.41"/>
     <use style="fill:#d62728;stroke:#d62728;stroke-linejoin:miter;" x="822.952941" xlink:href="#mcbb72cf91f" y="289.04083"/>
     <use style="fill:#d62728;stroke:#d62728;stroke-linejoin:miter;" x="843.840642" xlink:href="#mcbb72cf91f" y="286.269924"/>
     <use style="fill:#d62728;stroke:#d62728;stroke-linejoin:miter;" x="861.247059" xlink:href="#mcbb72cf91f" y="284.207488"/>
     <use style="fill:#d62728;stroke:#d62728;stroke-linejoin:miter;" x="871.690909" xlink:href="#mcbb72cf91f" y="279.500096"/>
    </g>
   </g>
   <g id="patch_3">
    <path d="M 126 304.38 
L 126 41.04 
" style="fill:none;stroke:#000000;stroke-linecap:square;stroke-linejoin:miter;stroke-width:0.8;"/>
   </g>
   <g id="patch_4">
    <path d="M 907.2 304.38 
L 907.2 41.04 
" style="fill:none;stroke:#000000;stroke-linecap:square;stroke-linejoin:miter;stroke-width:0.8;"/>
   </g>
   <g id="patch_5">
    <path d="M 126 304.38 
L 907.2 304.38 
" style="fill:none;stroke:#000000;stroke-linecap:square;stroke-linejoin:miter;stroke-width:0.8;"/>
   </g>
   <g id="patch_6">
    <path d="M 126 41.04 
L 907.2 41.04 
" style="fill:none;stroke:#000000;stroke-linecap:square;stroke-linejoin:miter;stroke-width:0.8;"/>
   </g>
  </g>
 </g>
 <defs>
  <clipPath id="p159e352a5d">
   <rect height="263.34" width="781.2" x="126" y="41.04"/>
  </clipPath>
 </defs>
</svg>
