<?xml version="1.0" encoding="utf-8" standalone="no"?>
<!DOCTYPE svg PUBLIC "-//W3C//DTD SVG 1.1//EN"
  "http://www.w3.org/Graphics/SVG/1.1/DTD/svg11.dtd">
<!-- Created with matplotlib (http://matplotlib.org/) -->
<svg height="342pt" version="1.1" viewBox="0 0 1008 342" width="1008pt" xmlns="http://www.w3.org/2000/svg" xmlns:xlink="http://www.w3.org/1999/xlink">
 <defs>
  <style type="text/css">
*{stroke-linecap:butt;stroke-linejoin:round;}
  </style>
 </defs>
 <g id="figure_1">
  <g id="patch_1">
   <path d="M 0 342 
L 1008 342 
L 1008 0 
L 0 0 
z
" style="fill:#ffffff;"/>
  </g>
  <g id="axes_1">
   <g id="patch_2">
    <path d="M 62.39 300.04 
L 994.68 300.04 
L 994.68 14.154986 
L 62.39 14.154986 
z
" style="fill:#ffffff;"/>
   </g>
   <g id="PolyCollection_1">
    <defs>
     <path d="M 104.766818 -314.850241 
L 104.766818 -54.954773 
L 104.766818 -54.954773 
L 104.766818 -54.954773 
L 104.766818 -54.954773 
L 104.766818 -54.954773 
L 104.766818 -54.954773 
L 104.766818 -54.954773 
L 104.766818 -54.954773 
L 104.766818 -54.954773 
L 104.766818 -54.954773 
L 104.766818 -314.850241 
L 104.766818 -314.850241 
L 104.766818 -314.850241 
L 104.766818 -314.850241 
L 104.766818 -314.850241 
L 104.766818 -314.850241 
L 104.766818 -314.850241 
L 104.766818 -314.850241 
L 104.766818 -314.850241 
L 104.766818 -314.850241 
L 104.766818 -314.850241 
z
" id="m96e56f10e9" style="stroke:#000000;stroke-opacity:0.2;"/>
    </defs>
    <g clip-path="url(#p3eb8214f31)">
     <use style="fill-opacity:0.2;stroke:#000000;stroke-opacity:0.2;" x="0" xlink:href="#m96e56f10e9" y="342"/>
    </g>
   </g>
   <g id="PathCollection_1">
    <defs>
     <path d="M 0 3 
C 0.795609 3 1.55874 2.683901 2.12132 2.12132 
C 2.683901 1.55874 3 0.795609 3 0 
C 3 -0.795609 2.683901 -1.55874 2.12132 -2.12132 
C 1.55874 -2.683901 0.795609 -3 0 -3 
C -0.795609 -3 -1.55874 -2.683901 -2.12132 -2.12132 
C -2.683901 -1.55874 -3 -0.795609 -3 0 
C -3 0.795609 -2.683901 1.55874 -2.12132 2.12132 
C -1.55874 2.683901 -0.795609 3 0 3 
z
" id="m853438f78b" style="stroke:#1f77b4;stroke-opacity:0.8;"/>
    </defs>
    <g clip-path="url(#p3eb8214f31)">
     <use style="fill:#1f77b4;fill-opacity:0.8;stroke:#1f77b4;stroke-opacity:0.8;" x="326.286155" xlink:href="#m853438f78b" y="156.815941"/>
     <use style="fill:#1f77b4;fill-opacity:0.8;stroke:#1f77b4;stroke-opacity:0.8;" x="302.6974" xlink:href="#m853438f78b" y="155.262804"/>
     <use style="fill:#1f77b4;fill-opacity:0.8;stroke:#1f77b4;stroke-opacity:0.8;" x="300.547825" xlink:href="#m853438f78b" y="156.593037"/>
     <use style="fill:#1f77b4;fill-opacity:0.8;stroke:#1f77b4;stroke-opacity:0.8;" x="293.194017" xlink:href="#m853438f78b" y="157.002892"/>
     <use style="fill:#1f77b4;fill-opacity:0.8;stroke:#1f77b4;stroke-opacity:0.8;" x="284.086608" xlink:href="#m853438f78b" y="156.866274"/>
     <use style="fill:#1f77b4;fill-opacity:0.8;stroke:#1f77b4;stroke-opacity:0.8;" x="368.03316" xlink:href="#m853438f78b" y="156.787179"/>
     <use style="fill:#1f77b4;fill-opacity:0.8;stroke:#1f77b4;stroke-opacity:0.8;" x="378.724466" xlink:href="#m853438f78b" y="156.506751"/>
     <use style="fill:#1f77b4;fill-opacity:0.8;stroke:#1f77b4;stroke-opacity:0.8;" x="418.661302" xlink:href="#m853438f78b" y="156.851893"/>
     <use style="fill:#1f77b4;fill-opacity:0.8;stroke:#1f77b4;stroke-opacity:0.8;" x="429.692015" xlink:href="#m853438f78b" y="155.694231"/>
     <use style="fill:#1f77b4;fill-opacity:0.8;stroke:#1f77b4;stroke-opacity:0.8;" x="487.277992" xlink:href="#m853438f78b" y="156.211943"/>
     <use style="fill:#1f77b4;fill-opacity:0.8;stroke:#1f77b4;stroke-opacity:0.8;" x="553.688538" xlink:href="#m853438f78b" y="155.536041"/>
     <use style="fill:#1f77b4;fill-opacity:0.8;stroke:#1f77b4;stroke-opacity:0.8;" x="545.995323" xlink:href="#m853438f78b" y="156.283847"/>
     <use style="fill:#1f77b4;fill-opacity:0.8;stroke:#1f77b4;stroke-opacity:0.8;" x="548.371169" xlink:href="#m853438f78b" y="155.492898"/>
     <use style="fill:#1f77b4;fill-opacity:0.8;stroke:#1f77b4;stroke-opacity:0.8;" x="446.71891" xlink:href="#m853438f78b" y="154.435903"/>
     <use style="fill:#1f77b4;fill-opacity:0.8;stroke:#1f77b4;stroke-opacity:0.8;" x="478.962531" xlink:href="#m853438f78b" y="154.924853"/>
     <use style="fill:#1f77b4;fill-opacity:0.8;stroke:#1f77b4;stroke-opacity:0.8;" x="748.168487" xlink:href="#m853438f78b" y="155.392232"/>
     <use style="fill:#1f77b4;fill-opacity:0.8;stroke:#1f77b4;stroke-opacity:0.8;" x="951.1336" xlink:href="#m853438f78b" y="154.529378"/>
     <use style="fill:#1f77b4;fill-opacity:0.8;stroke:#1f77b4;stroke-opacity:0.8;" x="945.363688" xlink:href="#m853438f78b" y="154.996757"/>
    </g>
   </g>
   <g id="PolyCollection_2">
    <path clip-path="url(#p3eb8214f31)" d="M 62.39 156.360389 
L 62.39 157.703087 
L 71.807071 157.66747 
L 81.224141 157.631731 
L 90.641212 157.59848 
L 100.058283 157.565736 
L 109.475354 157.529181 
L 118.892424 157.492196 
L 128.309495 157.458802 
L 137.726566 157.425364 
L 147.143636 157.391849 
L 156.560707 157.358256 
L 165.977778 157.317284 
L 175.394848 157.283486 
L 184.811919 157.239423 
L 194.22899 157.203705 
L 203.646061 157.168263 
L 213.063131 157.133601 
L 222.480202 157.099111 
L 231.897273 157.063551 
L 241.314343 157.025308 
L 250.731414 156.988726 
L 260.148485 156.950086 
L 269.565556 156.912028 
L 278.982626 156.873506 
L 288.399697 156.837212 
L 297.816768 156.802154 
L 307.233838 156.76656 
L 316.650909 156.735721 
L 326.06798 156.703494 
L 335.485051 156.669751 
L 344.902121 156.636647 
L 354.319192 156.603845 
L 363.736263 156.572356 
L 373.153333 156.540234 
L 382.570404 156.509287 
L 391.987475 156.477555 
L 401.404545 156.44976 
L 410.821616 156.418897 
L 420.238687 156.387219 
L 429.655758 156.355475 
L 439.072828 156.326321 
L 448.489899 156.2973 
L 457.90697 156.270559 
L 467.32404 156.239794 
L 476.741111 156.213465 
L 486.158182 156.183425 
L 495.575253 156.151535 
L 504.992323 156.124723 
L 514.409394 156.098494 
L 523.826465 156.070029 
L 533.243535 156.038639 
L 542.660606 156.013224 
L 552.077677 155.98491 
L 561.494747 155.956922 
L 570.911818 155.930749 
L 580.328889 155.901706 
L 589.74596 155.870654 
L 599.16303 155.84264 
L 608.580101 155.814565 
L 617.997172 155.785548 
L 627.414242 155.758796 
L 636.831313 155.730878 
L 646.248384 155.702782 
L 655.665455 155.674896 
L 665.082525 155.652413 
L 674.499596 155.628948 
L 683.916667 155.603597 
L 693.333737 155.575507 
L 702.750808 155.553264 
L 712.167879 155.526451 
L 721.584949 155.508861 
L 731.00202 155.481976 
L 740.419091 155.461787 
L 749.836162 155.442305 
L 759.253232 155.416876 
L 768.670303 155.39484 
L 778.087374 155.372539 
L 787.504444 155.348263 
L 796.921515 155.328518 
L 806.338586 155.308773 
L 815.755657 155.285448 
L 825.172727 155.26551 
L 834.589798 155.243664 
L 844.006869 155.2277 
L 853.423939 155.210783 
L 862.84101 155.191282 
L 872.258081 155.171657 
L 881.675152 155.149892 
L 891.092222 155.132155 
L 900.509293 155.112831 
L 909.926364 155.097491 
L 919.343434 155.081852 
L 928.760505 155.065093 
L 938.177576 155.043813 
L 947.594646 155.027374 
L 957.011717 155.013676 
L 966.428788 154.998023 
L 975.845859 154.981211 
L 985.262929 154.968981 
L 994.68 154.951363 
L 994.68 153.74875 
L 994.68 153.74875 
L 985.262929 153.788168 
L 975.845859 153.828997 
L 966.428788 153.869825 
L 957.011717 153.91 
L 947.594646 153.945152 
L 938.177576 153.980308 
L 928.760505 154.015558 
L 919.343434 154.056015 
L 909.926364 154.09736 
L 900.509293 154.138705 
L 891.092222 154.180051 
L 881.675152 154.221396 
L 872.258081 154.262741 
L 862.84101 154.304087 
L 853.423939 154.345432 
L 844.006869 154.386777 
L 834.589798 154.428123 
L 825.172727 154.461601 
L 815.755657 154.494528 
L 806.338586 154.527455 
L 796.921515 154.560382 
L 787.504444 154.59331 
L 778.087374 154.626237 
L 768.670303 154.659164 
L 759.253232 154.692091 
L 749.836162 154.72514 
L 740.419091 154.758883 
L 731.00202 154.796184 
L 721.584949 154.833617 
L 712.167879 154.871045 
L 702.750808 154.908365 
L 693.333737 154.945684 
L 683.916667 154.983003 
L 674.499596 155.01904 
L 665.082525 155.039851 
L 655.665455 155.069504 
L 646.248384 155.087951 
L 636.831313 155.127882 
L 627.414242 155.153832 
L 617.997172 155.188076 
L 608.580101 155.227503 
L 599.16303 155.266798 
L 589.74596 155.288066 
L 580.328889 155.318293 
L 570.911818 155.347864 
L 561.494747 155.373629 
L 552.077677 155.405427 
L 542.660606 155.427977 
L 533.243535 155.450075 
L 523.826465 155.471757 
L 514.409394 155.492228 
L 504.992323 155.512692 
L 495.575253 155.536492 
L 486.158182 155.562816 
L 476.741111 155.583344 
L 467.32404 155.60669 
L 457.90697 155.63558 
L 448.489899 155.653795 
L 439.072828 155.677201 
L 429.655758 155.699283 
L 420.238687 155.717933 
L 410.821616 155.736369 
L 401.404545 155.759457 
L 391.987475 155.779168 
L 382.570404 155.795764 
L 373.153333 155.812521 
L 363.736263 155.828692 
L 354.319192 155.847107 
L 344.902121 155.865521 
L 335.485051 155.883935 
L 326.06798 155.902365 
L 316.650909 155.920859 
L 307.233838 155.9369 
L 297.816768 155.95406 
L 288.399697 155.970977 
L 278.982626 155.986783 
L 269.565556 156.002659 
L 260.148485 156.02055 
L 250.731414 156.035313 
L 241.314343 156.052315 
L 231.897273 156.070877 
L 222.480202 156.088213 
L 213.063131 156.103327 
L 203.646061 156.11951 
L 194.22899 156.136919 
L 184.811919 156.151839 
L 175.394848 156.168016 
L 165.977778 156.184194 
L 156.560707 156.200371 
L 147.143636 156.21656 
L 137.726566 156.232776 
L 128.309495 156.248991 
L 118.892424 156.265206 
L 109.475354 156.281421 
L 100.058283 156.294557 
L 90.641212 156.308896 
L 81.224141 156.325515 
L 71.807071 156.342694 
L 62.39 156.360389 
z
" style="fill:#1f77b4;fill-opacity:0.15;"/>
   </g>
   <g id="PathCollection_2">
    <defs>
     <path d="M 0 3 
C 0.795609 3 1.55874 2.683901 2.12132 2.12132 
C 2.683901 1.55874 3 0.795609 3 0 
C 3 -0.795609 2.683901 -1.55874 2.12132 -2.12132 
C 1.55874 -2.683901 0.795609 -3 0 -3 
C -0.795609 -3 -1.55874 -2.683901 -2.12132 -2.12132 
C -2.683901 -1.55874 -3 -0.795609 -3 0 
C -3 0.795609 -2.683901 1.55874 -2.12132 2.12132 
C -1.55874 2.683901 -0.795609 3 0 3 
z
" id="mb09df2eb08" style="stroke:#ff7f0e;stroke-opacity:0.8;"/>
    </defs>
    <g clip-path="url(#p3eb8214f31)">
     <use style="fill:#ff7f0e;fill-opacity:0.8;stroke:#ff7f0e;stroke-opacity:0.8;" x="326.286155" xlink:href="#mb09df2eb08" y="158.617824"/>
     <use style="fill:#ff7f0e;fill-opacity:0.8;stroke:#ff7f0e;stroke-opacity:0.8;" x="302.6974" xlink:href="#mb09df2eb08" y="158.617651"/>
     <use style="fill:#ff7f0e;fill-opacity:0.8;stroke:#ff7f0e;stroke-opacity:0.8;" x="300.547825" xlink:href="#mb09df2eb08" y="158.616673"/>
     <use style="fill:#ff7f0e;fill-opacity:0.8;stroke:#ff7f0e;stroke-opacity:0.8;" x="293.194017" xlink:href="#mb09df2eb08" y="158.615932"/>
     <use style="fill:#ff7f0e;fill-opacity:0.8;stroke:#ff7f0e;stroke-opacity:0.8;" x="284.086608" xlink:href="#mb09df2eb08" y="158.616738"/>
     <use style="fill:#ff7f0e;fill-opacity:0.8;stroke:#ff7f0e;stroke-opacity:0.8;" x="368.03316" xlink:href="#mb09df2eb08" y="158.61599"/>
     <use style="fill:#ff7f0e;fill-opacity:0.8;stroke:#ff7f0e;stroke-opacity:0.8;" x="378.724466" xlink:href="#mb09df2eb08" y="158.615149"/>
     <use style="fill:#ff7f0e;fill-opacity:0.8;stroke:#ff7f0e;stroke-opacity:0.8;" x="418.661302" xlink:href="#mb09df2eb08" y="158.61507"/>
     <use style="fill:#ff7f0e;fill-opacity:0.8;stroke:#ff7f0e;stroke-opacity:0.8;" x="429.692015" xlink:href="#mb09df2eb08" y="158.61517"/>
     <use style="fill:#ff7f0e;fill-opacity:0.8;stroke:#ff7f0e;stroke-opacity:0.8;" x="487.277992" xlink:href="#mb09df2eb08" y="158.611595"/>
     <use style="fill:#ff7f0e;fill-opacity:0.8;stroke:#ff7f0e;stroke-opacity:0.8;" x="553.688538" xlink:href="#mb09df2eb08" y="158.611223"/>
     <use style="fill:#ff7f0e;fill-opacity:0.8;stroke:#ff7f0e;stroke-opacity:0.8;" x="545.995323" xlink:href="#mb09df2eb08" y="158.613531"/>
     <use style="fill:#ff7f0e;fill-opacity:0.8;stroke:#ff7f0e;stroke-opacity:0.8;" x="548.371169" xlink:href="#mb09df2eb08" y="158.613754"/>
     <use style="fill:#ff7f0e;fill-opacity:0.8;stroke:#ff7f0e;stroke-opacity:0.8;" x="446.71891" xlink:href="#mb09df2eb08" y="158.614372"/>
     <use style="fill:#ff7f0e;fill-opacity:0.8;stroke:#ff7f0e;stroke-opacity:0.8;" x="478.962531" xlink:href="#mb09df2eb08" y="158.614976"/>
     <use style="fill:#ff7f0e;fill-opacity:0.8;stroke:#ff7f0e;stroke-opacity:0.8;" x="748.168487" xlink:href="#mb09df2eb08" y="158.61297"/>
     <use style="fill:#ff7f0e;fill-opacity:0.8;stroke:#ff7f0e;stroke-opacity:0.8;" x="951.1336" xlink:href="#mb09df2eb08" y="158.612416"/>
     <use style="fill:#ff7f0e;fill-opacity:0.8;stroke:#ff7f0e;stroke-opacity:0.8;" x="945.363688" xlink:href="#mb09df2eb08" y="158.613056"/>
    </g>
   </g>
   <g id="PolyCollection_3">
    <path clip-path="url(#p3eb8214f31)" d="M 62.39 158.616259 
L 62.39 158.620321 
L 71.807071 158.620174 
L 81.224141 158.620027 
L 90.641212 158.619884 
L 100.058283 158.619747 
L 109.475354 158.61961 
L 118.892424 158.619472 
L 128.309495 158.61933 
L 137.726566 158.619197 
L 147.143636 158.61906 
L 156.560707 158.618923 
L 165.977778 158.618786 
L 175.394848 158.618649 
L 184.811919 158.618512 
L 194.22899 158.618372 
L 203.646061 158.618221 
L 213.063131 158.618086 
L 222.480202 158.617963 
L 231.897273 158.617826 
L 241.314343 158.617706 
L 250.731414 158.617556 
L 260.148485 158.617432 
L 269.565556 158.617323 
L 278.982626 158.617202 
L 288.399697 158.617069 
L 297.816768 158.616934 
L 307.233838 158.6168 
L 316.650909 158.616668 
L 326.06798 158.616546 
L 335.485051 158.616427 
L 344.902121 158.616345 
L 354.319192 158.616248 
L 363.736263 158.616147 
L 373.153333 158.616071 
L 382.570404 158.615994 
L 391.987475 158.615914 
L 401.404545 158.61584 
L 410.821616 158.615766 
L 420.238687 158.615682 
L 429.655758 158.615611 
L 439.072828 158.615543 
L 448.489899 158.615475 
L 457.90697 158.615406 
L 467.32404 158.615338 
L 476.741111 158.615267 
L 486.158182 158.6152 
L 495.575253 158.615137 
L 504.992323 158.615069 
L 514.409394 158.615008 
L 523.826465 158.614947 
L 533.243535 158.614889 
L 542.660606 158.614828 
L 552.077677 158.614768 
L 561.494747 158.614708 
L 570.911818 158.614642 
L 580.328889 158.614574 
L 589.74596 158.614508 
L 599.16303 158.614446 
L 608.580101 158.614385 
L 617.997172 158.614324 
L 627.414242 158.614264 
L 636.831313 158.614204 
L 646.248384 158.614144 
L 655.665455 158.614083 
L 665.082525 158.614022 
L 674.499596 158.613962 
L 683.916667 158.613907 
L 693.333737 158.613852 
L 702.750808 158.613797 
L 712.167879 158.613742 
L 721.584949 158.613681 
L 731.00202 158.613628 
L 740.419091 158.61357 
L 749.836162 158.613508 
L 759.253232 158.613454 
L 768.670303 158.613399 
L 778.087374 158.613346 
L 787.504444 158.613298 
L 796.921515 158.61324 
L 806.338586 158.613183 
L 815.755657 158.613127 
L 825.172727 158.613074 
L 834.589798 158.613017 
L 844.006869 158.612959 
L 853.423939 158.612902 
L 862.84101 158.612846 
L 872.258081 158.612787 
L 881.675152 158.612739 
L 891.092222 158.612693 
L 900.509293 158.612642 
L 909.926364 158.612592 
L 919.343434 158.612541 
L 928.760505 158.612487 
L 938.177576 158.612439 
L 947.594646 158.612389 
L 957.011717 158.612334 
L 966.428788 158.612272 
L 975.845859 158.612218 
L 985.262929 158.612182 
L 994.68 158.612146 
L 994.68 158.606631 
L 994.68 158.606631 
L 985.262929 158.60677 
L 975.845859 158.60691 
L 966.428788 158.607049 
L 957.011717 158.607188 
L 947.594646 158.607328 
L 938.177576 158.607467 
L 928.760505 158.607606 
L 919.343434 158.607745 
L 909.926364 158.607885 
L 900.509293 158.608024 
L 891.092222 158.608163 
L 881.675152 158.608303 
L 872.258081 158.608442 
L 862.84101 158.608581 
L 853.423939 158.60872 
L 844.006869 158.60886 
L 834.589798 158.608999 
L 825.172727 158.609138 
L 815.755657 158.609278 
L 806.338586 158.609417 
L 796.921515 158.609556 
L 787.504444 158.609696 
L 778.087374 158.609835 
L 768.670303 158.609974 
L 759.253232 158.610113 
L 749.836162 158.610249 
L 740.419091 158.61038 
L 731.00202 158.61051 
L 721.584949 158.610641 
L 712.167879 158.610761 
L 702.750808 158.610881 
L 693.333737 158.611 
L 683.916667 158.61112 
L 674.499596 158.61124 
L 665.082525 158.611359 
L 655.665455 158.611485 
L 646.248384 158.611634 
L 636.831313 158.611782 
L 627.414242 158.611914 
L 617.997172 158.612051 
L 608.580101 158.612194 
L 599.16303 158.612337 
L 589.74596 158.612466 
L 580.328889 158.612592 
L 570.911818 158.612731 
L 561.494747 158.612861 
L 552.077677 158.612992 
L 542.660606 158.613127 
L 533.243535 158.61326 
L 523.826465 158.613347 
L 514.409394 158.613487 
L 504.992323 158.613623 
L 495.575253 158.613727 
L 486.158182 158.61383 
L 476.741111 158.613913 
L 467.32404 158.614004 
L 457.90697 158.614116 
L 448.489899 158.614184 
L 439.072828 158.614238 
L 429.655758 158.614328 
L 420.238687 158.614383 
L 410.821616 158.614438 
L 401.404545 158.614492 
L 391.987475 158.614549 
L 382.570404 158.6146 
L 373.153333 158.614651 
L 363.736263 158.614703 
L 354.319192 158.614754 
L 344.902121 158.614806 
L 335.485051 158.614857 
L 326.06798 158.614909 
L 316.650909 158.61496 
L 307.233838 158.615007 
L 297.816768 158.615051 
L 288.399697 158.615095 
L 278.982626 158.615147 
L 269.565556 158.615206 
L 260.148485 158.615264 
L 250.731414 158.615321 
L 241.314343 158.615372 
L 231.897273 158.615424 
L 222.480202 158.615475 
L 213.063131 158.615524 
L 203.646061 158.615564 
L 194.22899 158.615613 
L 184.811919 158.615665 
L 175.394848 158.615717 
L 165.977778 158.615768 
L 156.560707 158.615817 
L 147.143636 158.61586 
L 137.726566 158.615903 
L 128.309495 158.615946 
L 118.892424 158.615989 
L 109.475354 158.616032 
L 100.058283 158.616082 
L 90.641212 158.616129 
L 81.224141 158.616172 
L 71.807071 158.616215 
L 62.39 158.616259 
z
" style="fill:#ff7f0e;fill-opacity:0.15;"/>
   </g>
   <g id="matplotlib.axis_1">
    <g id="xtick_1">
     <g id="line2d_1">
      <defs>
       <path d="M 0 0 
L 0 3.5 
" id="m20f3fc9c52" style="stroke:#000000;stroke-width:0.8;"/>
      </defs>
      <g>
       <use style="stroke:#000000;stroke-width:0.8;" x="104.766818" xlink:href="#m20f3fc9c52" y="300.04"/>
      </g>
     </g>
     <g id="text_1">
      <!-- 0.000000 -->
      <defs>
       <path d="M 31.78125 66.40625 
Q 24.171875 66.40625 20.328125 58.90625 
Q 16.5 51.421875 16.5 36.375 
Q 16.5 21.390625 20.328125 13.890625 
Q 24.171875 6.390625 31.78125 6.390625 
Q 39.453125 6.390625 43.28125 13.890625 
Q 47.125 21.390625 47.125 36.375 
Q 47.125 51.421875 43.28125 58.90625 
Q 39.453125 66.40625 31.78125 66.40625 
z
M 31.78125 74.21875 
Q 44.046875 74.21875 50.515625 64.515625 
Q 56.984375 54.828125 56.984375 36.375 
Q 56.984375 17.96875 50.515625 8.265625 
Q 44.046875 -1.421875 31.78125 -1.421875 
Q 19.53125 -1.421875 13.0625 8.265625 
Q 6.59375 17.96875 6.59375 36.375 
Q 6.59375 54.828125 13.0625 64.515625 
Q 19.53125 74.21875 31.78125 74.21875 
z
" id="DejaVuSans-30"/>
       <path d="M 10.6875 12.40625 
L 21 12.40625 
L 21 0 
L 10.6875 0 
z
" id="DejaVuSans-2e"/>
      </defs>
      <g transform="translate(80.909006 314.638438)scale(0.1 -0.1)">
       <use xlink:href="#DejaVuSans-30"/>
       <use x="63.623047" xlink:href="#DejaVuSans-2e"/>
       <use x="95.410156" xlink:href="#DejaVuSans-30"/>
       <use x="159.033203" xlink:href="#DejaVuSans-30"/>
       <use x="222.65625" xlink:href="#DejaVuSans-30"/>
       <use x="286.279297" xlink:href="#DejaVuSans-30"/>
       <use x="349.902344" xlink:href="#DejaVuSans-30"/>
       <use x="413.525391" xlink:href="#DejaVuSans-30"/>
      </g>
     </g>
    </g>
    <g id="xtick_2">
     <g id="line2d_2">
      <g>
       <use style="stroke:#000000;stroke-width:0.8;" x="217.902332" xlink:href="#m20f3fc9c52" y="300.04"/>
      </g>
     </g>
     <g id="text_2">
      <!-- 0.000002 -->
      <defs>
       <path d="M 19.1875 8.296875 
L 53.609375 8.296875 
L 53.609375 0 
L 7.328125 0 
L 7.328125 8.296875 
Q 12.9375 14.109375 22.625 23.890625 
Q 32.328125 33.6875 34.8125 36.53125 
Q 39.546875 41.84375 41.421875 45.53125 
Q 43.3125 49.21875 43.3125 52.78125 
Q 43.3125 58.59375 39.234375 62.25 
Q 35.15625 65.921875 28.609375 65.921875 
Q 23.96875 65.921875 18.8125 64.3125 
Q 13.671875 62.703125 7.8125 59.421875 
L 7.8125 69.390625 
Q 13.765625 71.78125 18.9375 73 
Q 24.125 74.21875 28.421875 74.21875 
Q 39.75 74.21875 46.484375 68.546875 
Q 53.21875 62.890625 53.21875 53.421875 
Q 53.21875 48.921875 51.53125 44.890625 
Q 49.859375 40.875 45.40625 35.40625 
Q 44.1875 33.984375 37.640625 27.21875 
Q 31.109375 20.453125 19.1875 8.296875 
z
" id="DejaVuSans-32"/>
      </defs>
      <g transform="translate(194.04452 314.638438)scale(0.1 -0.1)">
       <use xlink:href="#DejaVuSans-30"/>
       <use x="63.623047" xlink:href="#DejaVuSans-2e"/>
       <use x="95.410156" xlink:href="#DejaVuSans-30"/>
       <use x="159.033203" xlink:href="#DejaVuSans-30"/>
       <use x="222.65625" xlink:href="#DejaVuSans-30"/>
       <use x="286.279297" xlink:href="#DejaVuSans-30"/>
       <use x="349.902344" xlink:href="#DejaVuSans-30"/>
       <use x="413.525391" xlink:href="#DejaVuSans-32"/>
      </g>
     </g>
    </g>
    <g id="xtick_3">
     <g id="line2d_3">
      <g>
       <use style="stroke:#000000;stroke-width:0.8;" x="331.037846" xlink:href="#m20f3fc9c52" y="300.04"/>
      </g>
     </g>
     <g id="text_3">
      <!-- 0.000004 -->
      <defs>
       <path d="M 37.796875 64.3125 
L 12.890625 25.390625 
L 37.796875 25.390625 
z
M 35.203125 72.90625 
L 47.609375 72.90625 
L 47.609375 25.390625 
L 58.015625 25.390625 
L 58.015625 17.1875 
L 47.609375 17.1875 
L 47.609375 0 
L 37.796875 0 
L 37.796875 17.1875 
L 4.890625 17.1875 
L 4.890625 26.703125 
z
" id="DejaVuSans-34"/>
      </defs>
      <g transform="translate(307.180034 314.638438)scale(0.1 -0.1)">
       <use xlink:href="#DejaVuSans-30"/>
       <use x="63.623047" xlink:href="#DejaVuSans-2e"/>
       <use x="95.410156" xlink:href="#DejaVuSans-30"/>
       <use x="159.033203" xlink:href="#DejaVuSans-30"/>
       <use x="222.65625" xlink:href="#DejaVuSans-30"/>
       <use x="286.279297" xlink:href="#DejaVuSans-30"/>
       <use x="349.902344" xlink:href="#DejaVuSans-30"/>
       <use x="413.525391" xlink:href="#DejaVuSans-34"/>
      </g>
     </g>
    </g>
    <g id="xtick_4">
     <g id="line2d_4">
      <g>
       <use style="stroke:#000000;stroke-width:0.8;" x="444.173361" xlink:href="#m20f3fc9c52" y="300.04"/>
      </g>
     </g>
     <g id="text_4">
      <!-- 0.000006 -->
      <defs>
       <path d="M 33.015625 40.375 
Q 26.375 40.375 22.484375 35.828125 
Q 18.609375 31.296875 18.609375 23.390625 
Q 18.609375 15.53125 22.484375 10.953125 
Q 26.375 6.390625 33.015625 6.390625 
Q 39.65625 6.390625 43.53125 10.953125 
Q 47.40625 15.53125 47.40625 23.390625 
Q 47.40625 31.296875 43.53125 35.828125 
Q 39.65625 40.375 33.015625 40.375 
z
M 52.59375 71.296875 
L 52.59375 62.3125 
Q 48.875 64.0625 45.09375 64.984375 
Q 41.3125 65.921875 37.59375 65.921875 
Q 27.828125 65.921875 22.671875 59.328125 
Q 17.53125 52.734375 16.796875 39.40625 
Q 19.671875 43.65625 24.015625 45.921875 
Q 28.375 48.1875 33.59375 48.1875 
Q 44.578125 48.1875 50.953125 41.515625 
Q 57.328125 34.859375 57.328125 23.390625 
Q 57.328125 12.15625 50.6875 5.359375 
Q 44.046875 -1.421875 33.015625 -1.421875 
Q 20.359375 -1.421875 13.671875 8.265625 
Q 6.984375 17.96875 6.984375 36.375 
Q 6.984375 53.65625 15.1875 63.9375 
Q 23.390625 74.21875 37.203125 74.21875 
Q 40.921875 74.21875 44.703125 73.484375 
Q 48.484375 72.75 52.59375 71.296875 
z
" id="DejaVuSans-36"/>
      </defs>
      <g transform="translate(420.315548 314.638438)scale(0.1 -0.1)">
       <use xlink:href="#DejaVuSans-30"/>
       <use x="63.623047" xlink:href="#DejaVuSans-2e"/>
       <use x="95.410156" xlink:href="#DejaVuSans-30"/>
       <use x="159.033203" xlink:href="#DejaVuSans-30"/>
       <use x="222.65625" xlink:href="#DejaVuSans-30"/>
       <use x="286.279297" xlink:href="#DejaVuSans-30"/>
       <use x="349.902344" xlink:href="#DejaVuSans-30"/>
       <use x="413.525391" xlink:href="#DejaVuSans-36"/>
      </g>
     </g>
    </g>
    <g id="xtick_5">
     <g id="line2d_5">
      <g>
       <use style="stroke:#000000;stroke-width:0.8;" x="557.308875" xlink:href="#m20f3fc9c52" y="300.04"/>
      </g>
     </g>
     <g id="text_5">
      <!-- 0.000008 -->
      <defs>
       <path d="M 31.78125 34.625 
Q 24.75 34.625 20.71875 30.859375 
Q 16.703125 27.09375 16.703125 20.515625 
Q 16.703125 13.921875 20.71875 10.15625 
Q 24.75 6.390625 31.78125 6.390625 
Q 38.8125 6.390625 42.859375 10.171875 
Q 46.921875 13.96875 46.921875 20.515625 
Q 46.921875 27.09375 42.890625 30.859375 
Q 38.875 34.625 31.78125 34.625 
z
M 21.921875 38.8125 
Q 15.578125 40.375 12.03125 44.71875 
Q 8.5 49.078125 8.5 55.328125 
Q 8.5 64.0625 14.71875 69.140625 
Q 20.953125 74.21875 31.78125 74.21875 
Q 42.671875 74.21875 48.875 69.140625 
Q 55.078125 64.0625 55.078125 55.328125 
Q 55.078125 49.078125 51.53125 44.71875 
Q 48 40.375 41.703125 38.8125 
Q 48.828125 37.15625 52.796875 32.3125 
Q 56.78125 27.484375 56.78125 20.515625 
Q 56.78125 9.90625 50.3125 4.234375 
Q 43.84375 -1.421875 31.78125 -1.421875 
Q 19.734375 -1.421875 13.25 4.234375 
Q 6.78125 9.90625 6.78125 20.515625 
Q 6.78125 27.484375 10.78125 32.3125 
Q 14.796875 37.15625 21.921875 38.8125 
z
M 18.3125 54.390625 
Q 18.3125 48.734375 21.84375 45.5625 
Q 25.390625 42.390625 31.78125 42.390625 
Q 38.140625 42.390625 41.71875 45.5625 
Q 45.3125 48.734375 45.3125 54.390625 
Q 45.3125 60.0625 41.71875 63.234375 
Q 38.140625 66.40625 31.78125 66.40625 
Q 25.390625 66.40625 21.84375 63.234375 
Q 18.3125 60.0625 18.3125 54.390625 
z
" id="DejaVuSans-38"/>
      </defs>
      <g transform="translate(533.451062 314.638438)scale(0.1 -0.1)">
       <use xlink:href="#DejaVuSans-30"/>
       <use x="63.623047" xlink:href="#DejaVuSans-2e"/>
       <use x="95.410156" xlink:href="#DejaVuSans-30"/>
       <use x="159.033203" xlink:href="#DejaVuSans-30"/>
       <use x="222.65625" xlink:href="#DejaVuSans-30"/>
       <use x="286.279297" xlink:href="#DejaVuSans-30"/>
       <use x="349.902344" xlink:href="#DejaVuSans-30"/>
       <use x="413.525391" xlink:href="#DejaVuSans-38"/>
      </g>
     </g>
    </g>
    <g id="xtick_6">
     <g id="line2d_6">
      <g>
       <use style="stroke:#000000;stroke-width:0.8;" x="670.444389" xlink:href="#m20f3fc9c52" y="300.04"/>
      </g>
     </g>
     <g id="text_6">
      <!-- 0.000010 -->
      <defs>
       <path d="M 12.40625 8.296875 
L 28.515625 8.296875 
L 28.515625 63.921875 
L 10.984375 60.40625 
L 10.984375 69.390625 
L 28.421875 72.90625 
L 38.28125 72.90625 
L 38.28125 8.296875 
L 54.390625 8.296875 
L 54.390625 0 
L 12.40625 0 
z
" id="DejaVuSans-31"/>
      </defs>
      <g transform="translate(646.586576 314.638438)scale(0.1 -0.1)">
       <use xlink:href="#DejaVuSans-30"/>
       <use x="63.623047" xlink:href="#DejaVuSans-2e"/>
       <use x="95.410156" xlink:href="#DejaVuSans-30"/>
       <use x="159.033203" xlink:href="#DejaVuSans-30"/>
       <use x="222.65625" xlink:href="#DejaVuSans-30"/>
       <use x="286.279297" xlink:href="#DejaVuSans-30"/>
       <use x="349.902344" xlink:href="#DejaVuSans-31"/>
       <use x="413.525391" xlink:href="#DejaVuSans-30"/>
      </g>
     </g>
    </g>
    <g id="xtick_7">
     <g id="line2d_7">
      <g>
       <use style="stroke:#000000;stroke-width:0.8;" x="783.579903" xlink:href="#m20f3fc9c52" y="300.04"/>
      </g>
     </g>
     <g id="text_7">
      <!-- 0.000012 -->
      <g transform="translate(759.722091 314.638438)scale(0.1 -0.1)">
       <use xlink:href="#DejaVuSans-30"/>
       <use x="63.623047" xlink:href="#DejaVuSans-2e"/>
       <use x="95.410156" xlink:href="#DejaVuSans-30"/>
       <use x="159.033203" xlink:href="#DejaVuSans-30"/>
       <use x="222.65625" xlink:href="#DejaVuSans-30"/>
       <use x="286.279297" xlink:href="#DejaVuSans-30"/>
       <use x="349.902344" xlink:href="#DejaVuSans-31"/>
       <use x="413.525391" xlink:href="#DejaVuSans-32"/>
      </g>
     </g>
    </g>
    <g id="xtick_8">
     <g id="line2d_8">
      <g>
       <use style="stroke:#000000;stroke-width:0.8;" x="896.715417" xlink:href="#m20f3fc9c52" y="300.04"/>
      </g>
     </g>
     <g id="text_8">
      <!-- 0.000014 -->
      <g transform="translate(872.857605 314.638438)scale(0.1 -0.1)">
       <use xlink:href="#DejaVuSans-30"/>
       <use x="63.623047" xlink:href="#DejaVuSans-2e"/>
       <use x="95.410156" xlink:href="#DejaVuSans-30"/>
       <use x="159.033203" xlink:href="#DejaVuSans-30"/>
       <use x="222.65625" xlink:href="#DejaVuSans-30"/>
       <use x="286.279297" xlink:href="#DejaVuSans-30"/>
       <use x="349.902344" xlink:href="#DejaVuSans-31"/>
       <use x="413.525391" xlink:href="#DejaVuSans-34"/>
      </g>
     </g>
    </g>
    <g id="text_9">
     <!-- K -->
     <defs>
      <path d="M 9.8125 72.90625 
L 19.671875 72.90625 
L 19.671875 42.09375 
L 52.390625 72.90625 
L 65.09375 72.90625 
L 28.90625 38.921875 
L 67.671875 0 
L 54.6875 0 
L 19.671875 35.109375 
L 19.671875 0 
L 9.8125 0 
z
" id="DejaVuSans-4b"/>
     </defs>
     <g transform="translate(525.256094 328.316562)scale(0.1 -0.1)">
      <use xlink:href="#DejaVuSans-4b"/>
     </g>
    </g>
   </g>
   <g id="matplotlib.axis_2">
    <g id="ytick_1">
     <g id="line2d_9">
      <defs>
       <path d="M 0 0 
L -3.5 0 
" id="m0070e29e8f" style="stroke:#000000;stroke-width:0.8;"/>
      </defs>
      <g>
       <use style="stroke:#000000;stroke-width:0.8;" x="62.39" xlink:href="#m0070e29e8f" y="266.477453"/>
      </g>
     </g>
     <g id="text_10">
      <!-- −0.15 -->
      <defs>
       <path d="M 10.59375 35.5 
L 73.1875 35.5 
L 73.1875 27.203125 
L 10.59375 27.203125 
z
" id="DejaVuSans-2212"/>
       <path d="M 10.796875 72.90625 
L 49.515625 72.90625 
L 49.515625 64.59375 
L 19.828125 64.59375 
L 19.828125 46.734375 
Q 21.96875 47.46875 24.109375 47.828125 
Q 26.265625 48.1875 28.421875 48.1875 
Q 40.625 48.1875 47.75 41.5 
Q 54.890625 34.8125 54.890625 23.390625 
Q 54.890625 11.625 47.5625 5.09375 
Q 40.234375 -1.421875 26.90625 -1.421875 
Q 22.3125 -1.421875 17.546875 -0.640625 
Q 12.796875 0.140625 7.71875 1.703125 
L 7.71875 11.625 
Q 12.109375 9.234375 16.796875 8.0625 
Q 21.484375 6.890625 26.703125 6.890625 
Q 35.15625 6.890625 40.078125 11.328125 
Q 45.015625 15.765625 45.015625 23.390625 
Q 45.015625 31 40.078125 35.4375 
Q 35.15625 39.890625 26.703125 39.890625 
Q 22.75 39.890625 18.8125 39.015625 
Q 14.890625 38.140625 10.796875 36.28125 
z
" id="DejaVuSans-35"/>
      </defs>
      <g transform="translate(24.744688 270.276671)scale(0.1 -0.1)">
       <use xlink:href="#DejaVuSans-2212"/>
       <use x="83.789062" xlink:href="#DejaVuSans-30"/>
       <use x="147.412109" xlink:href="#DejaVuSans-2e"/>
       <use x="179.199219" xlink:href="#DejaVuSans-31"/>
       <use x="242.822266" xlink:href="#DejaVuSans-35"/>
      </g>
     </g>
    </g>
    <g id="ytick_2">
     <g id="line2d_10">
      <g>
       <use style="stroke:#000000;stroke-width:0.8;" x="62.39" xlink:href="#m0070e29e8f" y="230.525216"/>
      </g>
     </g>
     <g id="text_11">
      <!-- −0.10 -->
      <g transform="translate(24.744688 234.324435)scale(0.1 -0.1)">
       <use xlink:href="#DejaVuSans-2212"/>
       <use x="83.789062" xlink:href="#DejaVuSans-30"/>
       <use x="147.412109" xlink:href="#DejaVuSans-2e"/>
       <use x="179.199219" xlink:href="#DejaVuSans-31"/>
       <use x="242.822266" xlink:href="#DejaVuSans-30"/>
      </g>
     </g>
    </g>
    <g id="ytick_3">
     <g id="line2d_11">
      <g>
       <use style="stroke:#000000;stroke-width:0.8;" x="62.39" xlink:href="#m0070e29e8f" y="194.572979"/>
      </g>
     </g>
     <g id="text_12">
      <!-- −0.05 -->
      <g transform="translate(24.744688 198.372198)scale(0.1 -0.1)">
       <use xlink:href="#DejaVuSans-2212"/>
       <use x="83.789062" xlink:href="#DejaVuSans-30"/>
       <use x="147.412109" xlink:href="#DejaVuSans-2e"/>
       <use x="179.199219" xlink:href="#DejaVuSans-30"/>
       <use x="242.822266" xlink:href="#DejaVuSans-35"/>
      </g>
     </g>
    </g>
    <g id="ytick_4">
     <g id="line2d_12">
      <g>
       <use style="stroke:#000000;stroke-width:0.8;" x="62.39" xlink:href="#m0070e29e8f" y="158.620743"/>
      </g>
     </g>
     <g id="text_13">
      <!-- 0.00 -->
      <g transform="translate(33.124375 162.419962)scale(0.1 -0.1)">
       <use xlink:href="#DejaVuSans-30"/>
       <use x="63.623047" xlink:href="#DejaVuSans-2e"/>
       <use x="95.410156" xlink:href="#DejaVuSans-30"/>
       <use x="159.033203" xlink:href="#DejaVuSans-30"/>
      </g>
     </g>
    </g>
    <g id="ytick_5">
     <g id="line2d_13">
      <g>
       <use style="stroke:#000000;stroke-width:0.8;" x="62.39" xlink:href="#m0070e29e8f" y="122.668506"/>
      </g>
     </g>
     <g id="text_14">
      <!-- 0.05 -->
      <g transform="translate(33.124375 126.467725)scale(0.1 -0.1)">
       <use xlink:href="#DejaVuSans-30"/>
       <use x="63.623047" xlink:href="#DejaVuSans-2e"/>
       <use x="95.410156" xlink:href="#DejaVuSans-30"/>
       <use x="159.033203" xlink:href="#DejaVuSans-35"/>
      </g>
     </g>
    </g>
    <g id="ytick_6">
     <g id="line2d_14">
      <g>
       <use style="stroke:#000000;stroke-width:0.8;" x="62.39" xlink:href="#m0070e29e8f" y="86.71627"/>
      </g>
     </g>
     <g id="text_15">
      <!-- 0.10 -->
      <g transform="translate(33.124375 90.515488)scale(0.1 -0.1)">
       <use xlink:href="#DejaVuSans-30"/>
       <use x="63.623047" xlink:href="#DejaVuSans-2e"/>
       <use x="95.410156" xlink:href="#DejaVuSans-31"/>
       <use x="159.033203" xlink:href="#DejaVuSans-30"/>
      </g>
     </g>
    </g>
    <g id="ytick_7">
     <g id="line2d_15">
      <g>
       <use style="stroke:#000000;stroke-width:0.8;" x="62.39" xlink:href="#m0070e29e8f" y="50.764033"/>
      </g>
     </g>
     <g id="text_16">
      <!-- 0.15 -->
      <g transform="translate(33.124375 54.563252)scale(0.1 -0.1)">
       <use xlink:href="#DejaVuSans-30"/>
       <use x="63.623047" xlink:href="#DejaVuSans-2e"/>
       <use x="95.410156" xlink:href="#DejaVuSans-31"/>
       <use x="159.033203" xlink:href="#DejaVuSans-35"/>
      </g>
     </g>
    </g>
    <g id="ytick_8">
     <g id="line2d_16">
      <g>
       <use style="stroke:#000000;stroke-width:0.8;" x="62.39" xlink:href="#m0070e29e8f" y="14.811796"/>
      </g>
     </g>
     <g id="text_17">
      <!-- 0.20 -->
      <g transform="translate(33.124375 18.611015)scale(0.1 -0.1)">
       <use xlink:href="#DejaVuSans-30"/>
       <use x="63.623047" xlink:href="#DejaVuSans-2e"/>
       <use x="95.410156" xlink:href="#DejaVuSans-32"/>
       <use x="159.033203" xlink:href="#DejaVuSans-30"/>
      </g>
     </g>
    </g>
    <g id="text_18">
     <!-- Ris -->
     <defs>
      <path d="M 44.390625 34.1875 
Q 47.5625 33.109375 50.5625 29.59375 
Q 53.5625 26.078125 56.59375 19.921875 
L 66.609375 0 
L 56 0 
L 46.6875 18.703125 
Q 43.0625 26.03125 39.671875 28.421875 
Q 36.28125 30.8125 30.421875 30.8125 
L 19.671875 30.8125 
L 19.671875 0 
L 9.8125 0 
L 9.8125 72.90625 
L 32.078125 72.90625 
Q 44.578125 72.90625 50.734375 67.671875 
Q 56.890625 62.453125 56.890625 51.90625 
Q 56.890625 45.015625 53.6875 40.46875 
Q 50.484375 35.9375 44.390625 34.1875 
z
M 19.671875 64.796875 
L 19.671875 38.921875 
L 32.078125 38.921875 
Q 39.203125 38.921875 42.84375 42.21875 
Q 46.484375 45.515625 46.484375 51.90625 
Q 46.484375 58.296875 42.84375 61.546875 
Q 39.203125 64.796875 32.078125 64.796875 
z
" id="DejaVuSans-52"/>
      <path d="M 9.421875 54.6875 
L 18.40625 54.6875 
L 18.40625 0 
L 9.421875 0 
z
M 9.421875 75.984375 
L 18.40625 75.984375 
L 18.40625 64.59375 
L 9.421875 64.59375 
z
" id="DejaVuSans-69"/>
      <path d="M 44.28125 53.078125 
L 44.28125 44.578125 
Q 40.484375 46.53125 36.375 47.5 
Q 32.28125 48.484375 27.875 48.484375 
Q 21.1875 48.484375 17.84375 46.4375 
Q 14.5 44.390625 14.5 40.28125 
Q 14.5 37.15625 16.890625 35.375 
Q 19.28125 33.59375 26.515625 31.984375 
L 29.59375 31.296875 
Q 39.15625 29.25 43.1875 25.515625 
Q 47.21875 21.78125 47.21875 15.09375 
Q 47.21875 7.46875 41.1875 3.015625 
Q 35.15625 -1.421875 24.609375 -1.421875 
Q 20.21875 -1.421875 15.453125 -0.5625 
Q 10.6875 0.296875 5.421875 2 
L 5.421875 11.28125 
Q 10.40625 8.6875 15.234375 7.390625 
Q 20.0625 6.109375 24.8125 6.109375 
Q 31.15625 6.109375 34.5625 8.28125 
Q 37.984375 10.453125 37.984375 14.40625 
Q 37.984375 18.0625 35.515625 20.015625 
Q 33.0625 21.96875 24.703125 23.78125 
L 21.578125 24.515625 
Q 13.234375 26.265625 9.515625 29.90625 
Q 5.8125 33.546875 5.8125 39.890625 
Q 5.8125 47.609375 11.28125 51.796875 
Q 16.75 56 26.8125 56 
Q 31.78125 56 36.171875 55.265625 
Q 40.578125 54.546875 44.28125 53.078125 
z
" id="DejaVuSans-73"/>
     </defs>
     <g transform="translate(18.665 164.565462)rotate(-90)scale(0.1 -0.1)">
      <use xlink:href="#DejaVuSans-52"/>
      <use x="69.482422" xlink:href="#DejaVuSans-69"/>
      <use x="97.265625" xlink:href="#DejaVuSans-73"/>
     </g>
    </g>
   </g>
   <g id="line2d_17">
    <path clip-path="url(#p3eb8214f31)" d="M 62.39 157.05638 
L 71.807071 157.030854 
L 81.224141 157.005328 
L 90.641212 156.979802 
L 100.058283 156.954276 
L 109.475354 156.928749 
L 118.892424 156.903223 
L 128.309495 156.877697 
L 137.726566 156.852171 
L 147.143636 156.826645 
L 156.560707 156.801119 
L 165.977778 156.775593 
L 175.394848 156.750067 
L 184.811919 156.724541 
L 194.22899 156.699015 
L 203.646061 156.673488 
L 213.063131 156.647962 
L 222.480202 156.622436 
L 231.897273 156.59691 
L 241.314343 156.571384 
L 250.731414 156.545858 
L 260.148485 156.520332 
L 269.565556 156.494806 
L 278.982626 156.46928 
L 288.399697 156.443754 
L 297.816768 156.418227 
L 307.233838 156.392701 
L 316.650909 156.367175 
L 326.06798 156.341649 
L 335.485051 156.316123 
L 344.902121 156.290597 
L 354.319192 156.265071 
L 363.736263 156.239545 
L 373.153333 156.214019 
L 382.570404 156.188493 
L 391.987475 156.162966 
L 401.404545 156.13744 
L 410.821616 156.111914 
L 420.238687 156.086388 
L 429.655758 156.060862 
L 439.072828 156.035336 
L 448.489899 156.00981 
L 457.90697 155.984284 
L 467.32404 155.958758 
L 476.741111 155.933232 
L 486.158182 155.907705 
L 495.575253 155.882179 
L 504.992323 155.856653 
L 514.409394 155.831127 
L 523.826465 155.805601 
L 533.243535 155.780075 
L 542.660606 155.754549 
L 552.077677 155.729023 
L 561.494747 155.703497 
L 570.911818 155.67797 
L 580.328889 155.652444 
L 589.74596 155.626918 
L 599.16303 155.601392 
L 608.580101 155.575866 
L 617.997172 155.55034 
L 627.414242 155.524814 
L 636.831313 155.499288 
L 646.248384 155.473762 
L 655.665455 155.448236 
L 665.082525 155.422709 
L 674.499596 155.397183 
L 683.916667 155.371657 
L 693.333737 155.346131 
L 702.750808 155.320605 
L 712.167879 155.295079 
L 721.584949 155.269553 
L 731.00202 155.244027 
L 740.419091 155.218501 
L 749.836162 155.192975 
L 759.253232 155.167448 
L 768.670303 155.141922 
L 778.087374 155.116396 
L 787.504444 155.09087 
L 796.921515 155.065344 
L 806.338586 155.039818 
L 815.755657 155.014292 
L 825.172727 154.988766 
L 834.589798 154.96324 
L 844.006869 154.937714 
L 853.423939 154.912187 
L 862.84101 154.886661 
L 872.258081 154.861135 
L 881.675152 154.835609 
L 891.092222 154.810083 
L 900.509293 154.784557 
L 909.926364 154.759031 
L 919.343434 154.733505 
L 928.760505 154.707979 
L 938.177576 154.682453 
L 947.594646 154.656926 
L 957.011717 154.6314 
L 966.428788 154.605874 
L 975.845859 154.580348 
L 985.262929 154.554822 
L 994.68 154.529296 
" style="fill:none;stroke:#1f77b4;stroke-linecap:square;stroke-width:2.25;"/>
   </g>
   <g id="line2d_18">
    <path clip-path="url(#p3eb8214f31)" d="M 62.39 158.617621 
L 71.807071 158.617556 
L 81.224141 158.617491 
L 90.641212 158.617426 
L 100.058283 158.617361 
L 109.475354 158.617295 
L 118.892424 158.61723 
L 128.309495 158.617165 
L 137.726566 158.6171 
L 147.143636 158.617035 
L 156.560707 158.61697 
L 165.977778 158.616905 
L 175.394848 158.61684 
L 184.811919 158.616775 
L 194.22899 158.61671 
L 203.646061 158.616645 
L 213.063131 158.61658 
L 222.480202 158.616515 
L 231.897273 158.61645 
L 241.314343 158.616385 
L 250.731414 158.61632 
L 260.148485 158.616255 
L 269.565556 158.61619 
L 278.982626 158.616125 
L 288.399697 158.61606 
L 297.816768 158.615994 
L 307.233838 158.615929 
L 316.650909 158.615864 
L 326.06798 158.615799 
L 335.485051 158.615734 
L 344.902121 158.615669 
L 354.319192 158.615604 
L 363.736263 158.615539 
L 373.153333 158.615474 
L 382.570404 158.615409 
L 391.987475 158.615344 
L 401.404545 158.615279 
L 410.821616 158.615214 
L 420.238687 158.615149 
L 429.655758 158.615084 
L 439.072828 158.615019 
L 448.489899 158.614954 
L 457.90697 158.614889 
L 467.32404 158.614824 
L 476.741111 158.614758 
L 486.158182 158.614693 
L 495.575253 158.614628 
L 504.992323 158.614563 
L 514.409394 158.614498 
L 523.826465 158.614433 
L 533.243535 158.614368 
L 542.660606 158.614303 
L 552.077677 158.614238 
L 561.494747 158.614173 
L 570.911818 158.614108 
L 580.328889 158.614043 
L 589.74596 158.613978 
L 599.16303 158.613913 
L 608.580101 158.613848 
L 617.997172 158.613783 
L 627.414242 158.613718 
L 636.831313 158.613653 
L 646.248384 158.613588 
L 655.665455 158.613522 
L 665.082525 158.613457 
L 674.499596 158.613392 
L 683.916667 158.613327 
L 693.333737 158.613262 
L 702.750808 158.613197 
L 712.167879 158.613132 
L 721.584949 158.613067 
L 731.00202 158.613002 
L 740.419091 158.612937 
L 749.836162 158.612872 
L 759.253232 158.612807 
L 768.670303 158.612742 
L 778.087374 158.612677 
L 787.504444 158.612612 
L 796.921515 158.612547 
L 806.338586 158.612482 
L 815.755657 158.612417 
L 825.172727 158.612352 
L 834.589798 158.612286 
L 844.006869 158.612221 
L 853.423939 158.612156 
L 862.84101 158.612091 
L 872.258081 158.612026 
L 881.675152 158.611961 
L 891.092222 158.611896 
L 900.509293 158.611831 
L 909.926364 158.611766 
L 919.343434 158.611701 
L 928.760505 158.611636 
L 938.177576 158.611571 
L 947.594646 158.611506 
L 957.011717 158.611441 
L 966.428788 158.611376 
L 975.845859 158.611311 
L 985.262929 158.611246 
L 994.68 158.611181 
" style="fill:none;stroke:#ff7f0e;stroke-linecap:square;stroke-width:2.25;"/>
   </g>
   <g id="patch_3">
    <path d="M 62.39 300.04 
L 62.39 14.154986 
" style="fill:none;stroke:#000000;stroke-linecap:square;stroke-linejoin:miter;stroke-width:0.8;"/>
   </g>
   <g id="patch_4">
    <path d="M 994.68 300.04 
L 994.68 14.154986 
" style="fill:none;stroke:#000000;stroke-linecap:square;stroke-linejoin:miter;stroke-width:0.8;"/>
   </g>
   <g id="patch_5">
    <path d="M 62.39 300.04 
L 994.68 300.04 
" style="fill:none;stroke:#000000;stroke-linecap:square;stroke-linejoin:miter;stroke-width:0.8;"/>
   </g>
   <g id="patch_6">
    <path d="M 62.39 14.154986 
L 994.68 14.154986 
" style="fill:none;stroke:#000000;stroke-linecap:square;stroke-linejoin:miter;stroke-width:0.8;"/>
   </g>
  </g>
 </g>
 <defs>
  <clipPath id="p3eb8214f31">
   <rect height="285.885014" width="932.29" x="62.39" y="14.154986"/>
  </clipPath>
 </defs>
</svg>
