<?xml version="1.0" encoding="utf-8" standalone="no"?>
<!DOCTYPE svg PUBLIC "-//W3C//DTD SVG 1.1//EN"
  "http://www.w3.org/Graphics/SVG/1.1/DTD/svg11.dtd">
<!-- Created with matplotlib (https://matplotlib.org/) -->
<svg height="342pt" version="1.1" viewBox="0 0 1008 342" width="1008pt" xmlns="http://www.w3.org/2000/svg" xmlns:xlink="http://www.w3.org/1999/xlink">
 <defs>
  <style type="text/css">
*{stroke-linecap:butt;stroke-linejoin:round;white-space:pre;}
  </style>
 </defs>
 <g id="figure_1">
  <g id="patch_1">
   <path d="M 0 342 
L 1008 342 
L 1008 0 
L 0 0 
z
" style="fill:#ffffff;"/>
  </g>
  <g id="axes_1">
   <g id="patch_2">
    <path d="M 39.94 265.7 
L 997.2 265.7 
L 997.2 10.8 
L 39.94 10.8 
z
" style="fill:#ffffff;"/>
   </g>
   <g id="matplotlib.axis_1">
    <g id="xtick_1">
     <g id="text_1">
      <!-- Херсонська -->
      <defs>
       <path d="M 6.296875 72.90625 
L 16.890625 72.90625 
L 35.015625 45.796875 
L 53.21875 72.90625 
L 63.8125 72.90625 
L 40.375 37.890625 
L 65.375 0 
L 54.78125 0 
L 34.28125 31 
L 13.625 0 
L 2.984375 0 
L 29 38.921875 
z
" id="DejaVuSans-1061"/>
       <path d="M 56.203125 29.59375 
L 56.203125 25.203125 
L 14.890625 25.203125 
Q 15.484375 15.921875 20.484375 11.0625 
Q 25.484375 6.203125 34.421875 6.203125 
Q 39.59375 6.203125 44.453125 7.46875 
Q 49.3125 8.734375 54.109375 11.28125 
L 54.109375 2.78125 
Q 49.265625 0.734375 44.1875 -0.34375 
Q 39.109375 -1.421875 33.890625 -1.421875 
Q 20.796875 -1.421875 13.15625 6.1875 
Q 5.515625 13.8125 5.515625 26.8125 
Q 5.515625 40.234375 12.765625 48.109375 
Q 20.015625 56 32.328125 56 
Q 43.359375 56 49.78125 48.890625 
Q 56.203125 41.796875 56.203125 29.59375 
z
M 47.21875 32.234375 
Q 47.125 39.59375 43.09375 43.984375 
Q 39.0625 48.390625 32.421875 48.390625 
Q 24.90625 48.390625 20.390625 44.140625 
Q 15.875 39.890625 15.1875 32.171875 
z
" id="DejaVuSans-1077"/>
       <path d="M 18.109375 8.203125 
L 18.109375 -20.796875 
L 9.078125 -20.796875 
L 9.078125 54.6875 
L 18.109375 54.6875 
L 18.109375 46.390625 
Q 20.953125 51.265625 25.265625 53.625 
Q 29.59375 56 35.59375 56 
Q 45.5625 56 51.78125 48.09375 
Q 58.015625 40.1875 58.015625 27.296875 
Q 58.015625 14.40625 51.78125 6.484375 
Q 45.5625 -1.421875 35.59375 -1.421875 
Q 29.59375 -1.421875 25.265625 0.953125 
Q 20.953125 3.328125 18.109375 8.203125 
z
M 48.6875 27.296875 
Q 48.6875 37.203125 44.609375 42.84375 
Q 40.53125 48.484375 33.40625 48.484375 
Q 26.265625 48.484375 22.1875 42.84375 
Q 18.109375 37.203125 18.109375 27.296875 
Q 18.109375 17.390625 22.1875 11.75 
Q 26.265625 6.109375 33.40625 6.109375 
Q 40.53125 6.109375 44.609375 11.75 
Q 48.6875 17.390625 48.6875 27.296875 
z
" id="DejaVuSans-1088"/>
       <path d="M 48.78125 52.59375 
L 48.78125 44.1875 
Q 44.96875 46.296875 41.140625 47.34375 
Q 37.3125 48.390625 33.40625 48.390625 
Q 24.65625 48.390625 19.8125 42.84375 
Q 14.984375 37.3125 14.984375 27.296875 
Q 14.984375 17.28125 19.8125 11.734375 
Q 24.65625 6.203125 33.40625 6.203125 
Q 37.3125 6.203125 41.140625 7.25 
Q 44.96875 8.296875 48.78125 10.40625 
L 48.78125 2.09375 
Q 45.015625 0.34375 40.984375 -0.53125 
Q 36.96875 -1.421875 32.421875 -1.421875 
Q 20.0625 -1.421875 12.78125 6.34375 
Q 5.515625 14.109375 5.515625 27.296875 
Q 5.515625 40.671875 12.859375 48.328125 
Q 20.21875 56 33.015625 56 
Q 37.15625 56 41.109375 55.140625 
Q 45.0625 54.296875 48.78125 52.59375 
z
" id="DejaVuSans-1089"/>
       <path d="M 30.609375 48.390625 
Q 23.390625 48.390625 19.1875 42.75 
Q 14.984375 37.109375 14.984375 27.296875 
Q 14.984375 17.484375 19.15625 11.84375 
Q 23.34375 6.203125 30.609375 6.203125 
Q 37.796875 6.203125 41.984375 11.859375 
Q 46.1875 17.53125 46.1875 27.296875 
Q 46.1875 37.015625 41.984375 42.703125 
Q 37.796875 48.390625 30.609375 48.390625 
z
M 30.609375 56 
Q 42.328125 56 49.015625 48.375 
Q 55.71875 40.765625 55.71875 27.296875 
Q 55.71875 13.875 49.015625 6.21875 
Q 42.328125 -1.421875 30.609375 -1.421875 
Q 18.84375 -1.421875 12.171875 6.21875 
Q 5.515625 13.875 5.515625 27.296875 
Q 5.515625 40.765625 12.171875 48.375 
Q 18.84375 56 30.609375 56 
z
" id="DejaVuSans-1086"/>
       <path d="M 9.078125 54.6875 
L 18.109375 54.6875 
L 18.109375 32.375 
L 47.265625 32.375 
L 47.265625 54.6875 
L 56.296875 54.6875 
L 56.296875 0 
L 47.265625 0 
L 47.265625 25.203125 
L 18.109375 25.203125 
L 18.109375 0 
L 9.078125 0 
z
" id="DejaVuSans-1085"/>
       <path d="M 43.453125 16.21875 
Q 43.453125 20.609375 40.25 22.90625 
Q 37.0625 25.203125 30.90625 25.203125 
L 18.109375 25.203125 
L 18.109375 7.171875 
L 30.90625 7.171875 
Q 37.0625 7.171875 40.25 9.484375 
Q 43.453125 11.8125 43.453125 16.21875 
z
M 9.078125 54.6875 
L 18.109375 54.6875 
L 18.109375 32.375 
L 31.296875 32.375 
Q 41.75 32.375 47.390625 28.390625 
Q 53.03125 24.421875 53.03125 16.21875 
Q 53.03125 8.015625 47.390625 4 
Q 41.75 0 31.296875 0 
L 9.078125 0 
z
" id="DejaVuSans-1100"/>
       <path d="M 9.078125 54.6875 
L 18.015625 54.6875 
L 18.015625 29 
L 43.359375 54.6875 
L 54.390625 54.6875 
L 33.5 33.546875 
L 57.078125 0 
L 47.015625 0 
L 27.640625 27.59375 
L 18.015625 17.828125 
L 18.015625 0 
L 9.078125 0 
z
" id="DejaVuSans-1082"/>
       <path d="M 34.28125 27.484375 
Q 23.390625 27.484375 19.1875 25 
Q 14.984375 22.515625 14.984375 16.5 
Q 14.984375 11.71875 18.140625 8.90625 
Q 21.296875 6.109375 26.703125 6.109375 
Q 34.1875 6.109375 38.703125 11.40625 
Q 43.21875 16.703125 43.21875 25.484375 
L 43.21875 27.484375 
z
M 52.203125 31.203125 
L 52.203125 0 
L 43.21875 0 
L 43.21875 8.296875 
Q 40.140625 3.328125 35.546875 0.953125 
Q 30.953125 -1.421875 24.3125 -1.421875 
Q 15.921875 -1.421875 10.953125 3.296875 
Q 6 8.015625 6 15.921875 
Q 6 25.140625 12.171875 29.828125 
Q 18.359375 34.515625 30.609375 34.515625 
L 43.21875 34.515625 
L 43.21875 35.40625 
Q 43.21875 41.609375 39.140625 45 
Q 35.0625 48.390625 27.6875 48.390625 
Q 23 48.390625 18.546875 47.265625 
Q 14.109375 46.140625 10.015625 43.890625 
L 10.015625 52.203125 
Q 14.9375 54.109375 19.578125 55.046875 
Q 24.21875 56 28.609375 56 
Q 40.484375 56 46.34375 49.84375 
Q 52.203125 43.703125 52.203125 31.203125 
z
" id="DejaVuSans-1072"/>
      </defs>
      <g transform="translate(61.538542 309.340312)rotate(-90)scale(0.06 -0.06)">
       <use xlink:href="#DejaVuSans-1061"/>
       <use x="68.505859" xlink:href="#DejaVuSans-1077"/>
       <use x="130.029297" xlink:href="#DejaVuSans-1088"/>
       <use x="193.505859" xlink:href="#DejaVuSans-1089"/>
       <use x="248.486328" xlink:href="#DejaVuSans-1086"/>
       <use x="309.667969" xlink:href="#DejaVuSans-1085"/>
       <use x="375.048828" xlink:href="#DejaVuSans-1089"/>
       <use x="430.029297" xlink:href="#DejaVuSans-1100"/>
       <use x="488.964844" xlink:href="#DejaVuSans-1082"/>
       <use x="549.365234" xlink:href="#DejaVuSans-1072"/>
      </g>
     </g>
    </g>
    <g id="xtick_2">
     <g id="text_2">
      <!-- Запорізька -->
      <defs>
       <path d="M 28.5625 74.21875 
Q 40.578125 74.21875 48.1875 69.109375 
Q 55.8125 64.015625 55.8125 55.328125 
Q 55.8125 49.265625 52.34375 45.09375 
Q 48.875 40.921875 42.484375 39.3125 
Q 49.5625 37.796875 53.53125 33 
Q 57.515625 28.21875 57.515625 21.1875 
Q 57.515625 9.96875 48.84375 4.265625 
Q 40.1875 -1.421875 28.5625 -1.421875 
Q 22.609375 -1.421875 15.671875 0.1875 
Q 8.734375 1.8125 6.59375 3.171875 
L 6.59375 13.328125 
Q 14.0625 8.984375 18.1875 7.9375 
Q 22.3125 6.890625 28.375 6.890625 
Q 37.546875 6.890625 42.625 10.40625 
Q 47.703125 13.921875 47.703125 21.1875 
Q 47.703125 27.640625 43.1875 31.265625 
Q 38.671875 34.90625 29.15625 34.90625 
L 19.1875 34.90625 
L 19.1875 43.015625 
L 29.546875 43.015625 
Q 38.28125 43.015625 42.140625 45.921875 
Q 46 48.828125 46 54.296875 
Q 46 59.90625 42.015625 62.90625 
Q 38.03125 65.921875 28.375 65.921875 
Q 21.828125 65.921875 19.578125 65.328125 
Q 17.328125 64.75 7.328125 60.984375 
L 7.328125 70.609375 
Q 12.84375 72.5625 18.59375 73.390625 
Q 24.359375 74.21875 28.5625 74.21875 
z
" id="DejaVuSans-1047"/>
       <path d="M 56.296875 54.6875 
L 56.296875 0 
L 47.265625 0 
L 47.265625 47.515625 
L 18.109375 47.515625 
L 18.109375 0 
L 9.078125 0 
L 9.078125 54.6875 
z
" id="DejaVuSans-1087"/>
       <path d="M 9.421875 54.6875 
L 18.40625 54.6875 
L 18.40625 0 
L 9.421875 0 
z
M 9.421875 75.984375 
L 18.40625 75.984375 
L 18.40625 64.59375 
L 9.421875 64.59375 
z
" id="DejaVuSans-1110"/>
       <path d="M 34.46875 29.5 
Q 40.53125 28.328125 43.890625 24.75 
Q 47.265625 21.1875 47.265625 15.921875 
Q 47.265625 7.46875 40.96875 3.015625 
Q 34.671875 -1.421875 23.046875 -1.421875 
Q 19.140625 -1.421875 15.015625 -0.734375 
Q 10.890625 -0.046875 6.5 1.3125 
L 6.5 9.671875 
Q 9.96875 7.859375 14.109375 6.953125 
Q 18.265625 6.0625 22.796875 6.0625 
Q 30.171875 6.0625 34.296875 8.796875 
Q 38.421875 11.53125 38.421875 15.921875 
Q 38.421875 20.21875 34.765625 22.828125 
Q 31.109375 25.4375 24.421875 25.4375 
L 17.1875 25.4375 
L 17.1875 32.859375 
L 24.75 32.859375 
Q 30.421875 32.859375 33.71875 35.03125 
Q 37.015625 37.203125 37.015625 40.625 
Q 37.015625 43.75 33.609375 46 
Q 30.21875 48.25 24.421875 48.25 
Q 20.953125 48.25 17.015625 47.609375 
Q 13.09375 46.96875 8.34375 45.5625 
L 8.34375 53.71875 
Q 13.140625 54.890625 17.28125 55.46875 
Q 21.4375 56.0625 25.140625 56.0625 
Q 34.71875 56.0625 40.25 52.21875 
Q 45.796875 48.390625 45.796875 41.5 
Q 45.796875 36.96875 42.859375 33.8125 
Q 39.9375 30.671875 34.46875 29.5 
z
" id="DejaVuSans-1079"/>
      </defs>
      <g transform="translate(101.424375 307.320938)rotate(-90)scale(0.06 -0.06)">
       <use xlink:href="#DejaVuSans-1047"/>
       <use x="64.111328" xlink:href="#DejaVuSans-1072"/>
       <use x="125.390625" xlink:href="#DejaVuSans-1087"/>
       <use x="190.771484" xlink:href="#DejaVuSans-1086"/>
       <use x="251.953125" xlink:href="#DejaVuSans-1088"/>
       <use x="315.429688" xlink:href="#DejaVuSans-1110"/>
       <use x="343.212891" xlink:href="#DejaVuSans-1079"/>
       <use x="396.386719" xlink:href="#DejaVuSans-1100"/>
       <use x="455.322266" xlink:href="#DejaVuSans-1082"/>
       <use x="515.722656" xlink:href="#DejaVuSans-1072"/>
      </g>
     </g>
    </g>
    <g id="xtick_3">
     <g id="text_3">
      <!-- Київська -->
      <defs>
       <path d="M 9.8125 72.90625 
L 19.671875 72.90625 
L 19.671875 36.859375 
L 54.9375 72.90625 
L 67.578125 72.90625 
L 39.40625 44.09375 
L 69.046875 0 
L 58.296875 0 
L 33.015625 37.546875 
L 19.671875 23.921875 
L 19.671875 0 
L 9.8125 0 
z
" id="DejaVuSans-1050"/>
       <path d="M 55.90625 54.6875 
L 55.90625 0 
L 46.96875 0 
L 46.96875 43.890625 
L 20.609375 0 
L 9.078125 0 
L 9.078125 54.6875 
L 18.015625 54.6875 
L 18.015625 10.890625 
L 44.34375 54.6875 
z
" id="DejaVuSans-1080"/>
       <path d="M 9.421875 54.6875 
L 18.40625 54.6875 
L 18.40625 0 
L 9.421875 0 
z
M 13.921875 56 
z
M 18.46875 75.78125 
L 28.375 75.78125 
L 28.375 65.921875 
L 18.46875 65.921875 
z
M -0.625 75.78125 
L 9.28125 75.78125 
L 9.28125 65.921875 
L -0.625 65.921875 
z
" id="DejaVuSans-1111"/>
       <path d="M 18.0625 25.203125 
L 18.0625 7.171875 
L 30.859375 7.171875 
Q 37.015625 7.171875 40.234375 9.484375 
Q 43.453125 11.8125 43.453125 16.21875 
Q 43.453125 20.609375 40.234375 22.90625 
Q 37.015625 25.203125 30.859375 25.203125 
z
M 18.0625 47.515625 
L 18.0625 32.375 
L 29.890625 32.375 
Q 34.96875 32.375 38.1875 34.390625 
Q 41.40625 36.421875 41.40625 40.046875 
Q 41.40625 43.65625 38.1875 45.578125 
Q 34.96875 47.515625 29.890625 47.515625 
z
M 9.078125 54.6875 
L 30.46875 54.6875 
Q 40.09375 54.6875 45.265625 51.171875 
Q 50.4375 47.65625 50.4375 41.15625 
Q 50.4375 36.140625 47.796875 33.171875 
Q 45.171875 30.21875 39.984375 29.5 
Q 46.1875 28.328125 49.609375 24.609375 
Q 53.03125 20.90625 53.03125 15.328125 
Q 53.03125 8.015625 47.390625 4 
Q 41.75 0 31.296875 0 
L 9.078125 0 
z
" id="DejaVuSans-1074"/>
      </defs>
      <g transform="translate(141.310208 300.19875)rotate(-90)scale(0.06 -0.06)">
       <use xlink:href="#DejaVuSans-1050"/>
       <use x="70.996094" xlink:href="#DejaVuSans-1080"/>
       <use x="135.986328" xlink:href="#DejaVuSans-1111"/>
       <use x="163.769531" xlink:href="#DejaVuSans-1074"/>
       <use x="222.705078" xlink:href="#DejaVuSans-1089"/>
       <use x="277.685547" xlink:href="#DejaVuSans-1100"/>
       <use x="336.621094" xlink:href="#DejaVuSans-1082"/>
       <use x="397.021484" xlink:href="#DejaVuSans-1072"/>
      </g>
     </g>
    </g>
    <g id="xtick_4">
     <g id="text_4">
      <!-- Дніпропетровська -->
      <defs>
       <path d="M 22.796875 8.296875 
L 55.03125 8.296875 
L 55.03125 64.59375 
L 31.34375 64.59375 
L 31.34375 54.25 
Q 31.34375 29.890625 25.875 13.71875 
Q 24.75 10.40625 22.796875 8.296875 
z
M 8.40625 8.296875 
Q 14.9375 11.375 16.796875 17.234375 
Q 21.53125 32.28125 21.53125 59.125 
L 21.53125 72.90625 
L 64.890625 72.90625 
L 64.890625 8.296875 
L 73.1875 8.296875 
L 73.1875 -15.671875 
L 64.890625 -15.671875 
L 64.890625 0 
L 13.234375 0 
L 13.234375 -15.671875 
L 4.9375 -15.671875 
L 4.9375 8.296875 
z
" id="DejaVuSans-1044"/>
       <path d="M 2.9375 54.6875 
L 55.328125 54.6875 
L 55.328125 47.515625 
L 33.546875 47.515625 
L 33.546875 0 
L 24.703125 0 
L 24.703125 47.515625 
L 2.9375 47.515625 
z
" id="DejaVuSans-1090"/>
      </defs>
      <g transform="translate(181.196042 330.642187)rotate(-90)scale(0.06 -0.06)">
       <use xlink:href="#DejaVuSans-1044"/>
       <use x="78.125" xlink:href="#DejaVuSans-1085"/>
       <use x="143.505859" xlink:href="#DejaVuSans-1110"/>
       <use x="171.289062" xlink:href="#DejaVuSans-1087"/>
       <use x="236.669922" xlink:href="#DejaVuSans-1088"/>
       <use x="300.146484" xlink:href="#DejaVuSans-1086"/>
       <use x="361.328125" xlink:href="#DejaVuSans-1087"/>
       <use x="426.708984" xlink:href="#DejaVuSans-1077"/>
       <use x="488.232422" xlink:href="#DejaVuSans-1090"/>
       <use x="546.484375" xlink:href="#DejaVuSans-1088"/>
       <use x="609.960938" xlink:href="#DejaVuSans-1086"/>
       <use x="671.142578" xlink:href="#DejaVuSans-1074"/>
       <use x="730.078125" xlink:href="#DejaVuSans-1089"/>
       <use x="785.058594" xlink:href="#DejaVuSans-1100"/>
       <use x="843.994141" xlink:href="#DejaVuSans-1082"/>
       <use x="904.394531" xlink:href="#DejaVuSans-1072"/>
      </g>
     </g>
    </g>
    <g id="xtick_5">
     <g id="text_5">
      <!-- Донецька -->
      <defs>
       <path d="M 56.296875 0 
L 9.078125 0 
L 9.078125 54.6875 
L 18.109375 54.6875 
L 18.109375 7.171875 
L 47.265625 7.171875 
L 47.265625 54.6875 
L 56.296875 54.6875 
L 56.296875 7.171875 
L 63.484375 7.171875 
L 63.484375 -13.8125 
L 56.296875 -13.8125 
z
" id="DejaVuSans-1094"/>
      </defs>
      <g transform="translate(221.081875 303.594375)rotate(-90)scale(0.06 -0.06)">
       <use xlink:href="#DejaVuSans-1044"/>
       <use x="78.125" xlink:href="#DejaVuSans-1086"/>
       <use x="139.306641" xlink:href="#DejaVuSans-1085"/>
       <use x="204.6875" xlink:href="#DejaVuSans-1077"/>
       <use x="266.210938" xlink:href="#DejaVuSans-1094"/>
       <use x="334.277344" xlink:href="#DejaVuSans-1100"/>
       <use x="393.212891" xlink:href="#DejaVuSans-1082"/>
       <use x="453.613281" xlink:href="#DejaVuSans-1072"/>
      </g>
     </g>
    </g>
    <g id="xtick_6">
     <g id="text_6">
      <!-- Львівська -->
      <defs>
       <path d="M 4.109375 0 
L 4.109375 8.296875 
Q 14.703125 10.59375 17.71875 18.609375 
Q 21.96875 31.203125 21.96875 60.5 
L 21.96875 72.90625 
L 65.328125 72.90625 
L 65.328125 0 
L 55.46875 0 
L 55.46875 64.59375 
L 31.78125 64.59375 
L 31.78125 55.609375 
Q 31.78125 27.984375 26.8125 15.09375 
Q 22.015625 2.734375 4.109375 0 
z
" id="DejaVuSans-1051"/>
      </defs>
      <g transform="translate(260.967708 303.624375)rotate(-90)scale(0.06 -0.06)">
       <use xlink:href="#DejaVuSans-1051"/>
       <use x="75.195312" xlink:href="#DejaVuSans-1100"/>
       <use x="134.130859" xlink:href="#DejaVuSans-1074"/>
       <use x="193.066406" xlink:href="#DejaVuSans-1110"/>
       <use x="220.849609" xlink:href="#DejaVuSans-1074"/>
       <use x="279.785156" xlink:href="#DejaVuSans-1089"/>
       <use x="334.765625" xlink:href="#DejaVuSans-1100"/>
       <use x="393.701172" xlink:href="#DejaVuSans-1082"/>
       <use x="454.101562" xlink:href="#DejaVuSans-1072"/>
      </g>
     </g>
    </g>
    <g id="xtick_7">
     <g id="text_7">
      <!-- Миколаївська -->
      <defs>
       <path d="M 9.8125 72.90625 
L 24.515625 72.90625 
L 43.109375 23.296875 
L 61.8125 72.90625 
L 76.515625 72.90625 
L 76.515625 0 
L 66.890625 0 
L 66.890625 64.015625 
L 48.09375 14.015625 
L 38.1875 14.015625 
L 19.390625 64.015625 
L 19.390625 0 
L 9.8125 0 
z
" id="DejaVuSans-1052"/>
       <path d="M 3.71875 0 
L 3.71875 7.46875 
Q 12.59375 8.84375 15.328125 14.984375 
Q 18.65625 23.640625 18.65625 45.75 
L 18.65625 54.6875 
L 55.609375 54.6875 
L 55.609375 0 
L 46.625 0 
L 46.625 47.515625 
L 27.640625 47.515625 
L 27.640625 42.09375 
Q 27.640625 21 23.34375 11.53125 
Q 18.75 1.421875 3.71875 0 
z
" id="DejaVuSans-1083"/>
      </defs>
      <g transform="translate(300.853542 315.923437)rotate(-90)scale(0.06 -0.06)">
       <use xlink:href="#DejaVuSans-1052"/>
       <use x="86.279297" xlink:href="#DejaVuSans-1080"/>
       <use x="151.269531" xlink:href="#DejaVuSans-1082"/>
       <use x="211.669922" xlink:href="#DejaVuSans-1086"/>
       <use x="272.851562" xlink:href="#DejaVuSans-1083"/>
       <use x="336.767578" xlink:href="#DejaVuSans-1072"/>
       <use x="398.046875" xlink:href="#DejaVuSans-1111"/>
       <use x="425.830078" xlink:href="#DejaVuSans-1074"/>
       <use x="484.765625" xlink:href="#DejaVuSans-1089"/>
       <use x="539.746094" xlink:href="#DejaVuSans-1100"/>
       <use x="598.681641" xlink:href="#DejaVuSans-1082"/>
       <use x="659.082031" xlink:href="#DejaVuSans-1072"/>
      </g>
     </g>
    </g>
    <g id="xtick_8">
     <g id="text_8">
      <!-- Закарпатська -->
      <g transform="translate(340.739375 316.564687)rotate(-90)scale(0.06 -0.06)">
       <use xlink:href="#DejaVuSans-1047"/>
       <use x="64.111328" xlink:href="#DejaVuSans-1072"/>
       <use x="125.390625" xlink:href="#DejaVuSans-1082"/>
       <use x="185.791016" xlink:href="#DejaVuSans-1072"/>
       <use x="247.070312" xlink:href="#DejaVuSans-1088"/>
       <use x="310.546875" xlink:href="#DejaVuSans-1087"/>
       <use x="375.927734" xlink:href="#DejaVuSans-1072"/>
       <use x="437.207031" xlink:href="#DejaVuSans-1090"/>
       <use x="495.458984" xlink:href="#DejaVuSans-1089"/>
       <use x="550.439453" xlink:href="#DejaVuSans-1100"/>
       <use x="609.375" xlink:href="#DejaVuSans-1082"/>
       <use x="669.775391" xlink:href="#DejaVuSans-1072"/>
      </g>
     </g>
    </g>
    <g id="xtick_9">
     <g id="text_9">
      <!-- Харківська -->
      <g transform="translate(380.625208 307.26)rotate(-90)scale(0.06 -0.06)">
       <use xlink:href="#DejaVuSans-1061"/>
       <use x="68.505859" xlink:href="#DejaVuSans-1072"/>
       <use x="129.785156" xlink:href="#DejaVuSans-1088"/>
       <use x="193.261719" xlink:href="#DejaVuSans-1082"/>
       <use x="253.662109" xlink:href="#DejaVuSans-1110"/>
       <use x="281.445312" xlink:href="#DejaVuSans-1074"/>
       <use x="340.380859" xlink:href="#DejaVuSans-1089"/>
       <use x="395.361328" xlink:href="#DejaVuSans-1100"/>
       <use x="454.296875" xlink:href="#DejaVuSans-1082"/>
       <use x="514.697266" xlink:href="#DejaVuSans-1072"/>
      </g>
     </g>
    </g>
    <g id="xtick_10">
     <g id="text_10">
      <!-- Сумська -->
      <defs>
       <path d="M 64.40625 67.28125 
L 64.40625 56.890625 
Q 59.421875 61.53125 53.78125 63.8125 
Q 48.140625 66.109375 41.796875 66.109375 
Q 29.296875 66.109375 22.65625 58.46875 
Q 16.015625 50.828125 16.015625 36.375 
Q 16.015625 21.96875 22.65625 14.328125 
Q 29.296875 6.6875 41.796875 6.6875 
Q 48.140625 6.6875 53.78125 8.984375 
Q 59.421875 11.28125 64.40625 15.921875 
L 64.40625 5.609375 
Q 59.234375 2.09375 53.4375 0.328125 
Q 47.65625 -1.421875 41.21875 -1.421875 
Q 24.65625 -1.421875 15.125 8.703125 
Q 5.609375 18.84375 5.609375 36.375 
Q 5.609375 53.953125 15.125 64.078125 
Q 24.65625 74.21875 41.21875 74.21875 
Q 47.75 74.21875 53.53125 72.484375 
Q 59.328125 70.75 64.40625 67.28125 
z
" id="DejaVuSans-1057"/>
       <path d="M 32.171875 -5.078125 
Q 28.375 -14.84375 24.75 -17.8125 
Q 21.140625 -20.796875 15.09375 -20.796875 
L 7.90625 -20.796875 
L 7.90625 -13.28125 
L 13.1875 -13.28125 
Q 16.890625 -13.28125 18.9375 -11.515625 
Q 21 -9.765625 23.484375 -3.21875 
L 25.09375 0.875 
L 2.984375 54.6875 
L 12.5 54.6875 
L 29.59375 11.921875 
L 46.6875 54.6875 
L 56.203125 54.6875 
z
" id="DejaVuSans-1091"/>
       <path d="M 9.078125 54.6875 
L 22.21875 54.6875 
L 37.75 18.0625 
L 53.328125 54.6875 
L 66.359375 54.6875 
L 66.359375 0 
L 57.328125 0 
L 57.328125 46.09375 
L 42.234375 10.5 
L 33.25 10.5 
L 18.109375 46.09375 
L 18.109375 0 
L 9.078125 0 
z
" id="DejaVuSans-1084"/>
      </defs>
      <g transform="translate(420.511042 299.10375)rotate(-90)scale(0.06 -0.06)">
       <use xlink:href="#DejaVuSans-1057"/>
       <use x="69.824219" xlink:href="#DejaVuSans-1091"/>
       <use x="129.003906" xlink:href="#DejaVuSans-1084"/>
       <use x="204.443359" xlink:href="#DejaVuSans-1089"/>
       <use x="259.423828" xlink:href="#DejaVuSans-1100"/>
       <use x="318.359375" xlink:href="#DejaVuSans-1082"/>
       <use x="378.759766" xlink:href="#DejaVuSans-1072"/>
      </g>
     </g>
    </g>
    <g id="xtick_11">
     <g id="text_11">
      <!-- Луганська -->
      <defs>
       <path d="M 9.078125 0 
L 9.078125 54.6875 
L 47.65625 54.6875 
L 47.65625 47.515625 
L 18.109375 47.515625 
L 18.109375 0 
z
" id="DejaVuSans-1075"/>
      </defs>
      <g transform="translate(460.396875 305.652188)rotate(-90)scale(0.06 -0.06)">
       <use xlink:href="#DejaVuSans-1051"/>
       <use x="75.195312" xlink:href="#DejaVuSans-1091"/>
       <use x="134.375" xlink:href="#DejaVuSans-1075"/>
       <use x="186.914062" xlink:href="#DejaVuSans-1072"/>
       <use x="248.193359" xlink:href="#DejaVuSans-1085"/>
       <use x="313.574219" xlink:href="#DejaVuSans-1089"/>
       <use x="368.554688" xlink:href="#DejaVuSans-1100"/>
       <use x="427.490234" xlink:href="#DejaVuSans-1082"/>
       <use x="487.890625" xlink:href="#DejaVuSans-1072"/>
      </g>
     </g>
    </g>
    <g id="xtick_12">
     <g id="text_12">
      <!-- Одеська -->
      <defs>
       <path d="M 39.40625 66.21875 
Q 28.65625 66.21875 22.328125 58.203125 
Q 16.015625 50.203125 16.015625 36.375 
Q 16.015625 22.609375 22.328125 14.59375 
Q 28.65625 6.59375 39.40625 6.59375 
Q 50.140625 6.59375 56.421875 14.59375 
Q 62.703125 22.609375 62.703125 36.375 
Q 62.703125 50.203125 56.421875 58.203125 
Q 50.140625 66.21875 39.40625 66.21875 
z
M 39.40625 74.21875 
Q 54.734375 74.21875 63.90625 63.9375 
Q 73.09375 53.65625 73.09375 36.375 
Q 73.09375 19.140625 63.90625 8.859375 
Q 54.734375 -1.421875 39.40625 -1.421875 
Q 24.03125 -1.421875 14.8125 8.828125 
Q 5.609375 19.09375 5.609375 36.375 
Q 5.609375 53.65625 14.8125 63.9375 
Q 24.03125 74.21875 39.40625 74.21875 
z
" id="DejaVuSans-1054"/>
       <path d="M 21.625 7.171875 
L 47.703125 7.171875 
L 47.703125 47.515625 
L 28.8125 47.515625 
L 28.8125 40.671875 
Q 28.8125 20.5625 23.046875 9.8125 
z
M 8.59375 7.171875 
Q 13.03125 9.125 14.984375 13.28125 
Q 19.78125 23.578125 19.78125 44.34375 
L 19.78125 54.6875 
L 56.734375 54.6875 
L 56.734375 7.171875 
L 63.921875 7.171875 
L 63.921875 -13.8125 
L 56.734375 -13.8125 
L 56.734375 0 
L 12.40625 0 
L 12.40625 -13.8125 
L 5.21875 -13.8125 
L 5.21875 7.171875 
z
" id="DejaVuSans-1076"/>
      </defs>
      <g transform="translate(500.282708 299.4)rotate(-90)scale(0.06 -0.06)">
       <use xlink:href="#DejaVuSans-1054"/>
       <use x="78.710938" xlink:href="#DejaVuSans-1076"/>
       <use x="147.851562" xlink:href="#DejaVuSans-1077"/>
       <use x="209.375" xlink:href="#DejaVuSans-1089"/>
       <use x="264.355469" xlink:href="#DejaVuSans-1100"/>
       <use x="323.291016" xlink:href="#DejaVuSans-1082"/>
       <use x="383.691406" xlink:href="#DejaVuSans-1072"/>
      </g>
     </g>
    </g>
    <g id="xtick_13">
     <g id="text_13">
      <!-- Кіровоградська -->
      <g transform="translate(540.168542 322.238438)rotate(-90)scale(0.06 -0.06)">
       <use xlink:href="#DejaVuSans-1050"/>
       <use x="70.996094" xlink:href="#DejaVuSans-1110"/>
       <use x="98.779297" xlink:href="#DejaVuSans-1088"/>
       <use x="162.255859" xlink:href="#DejaVuSans-1086"/>
       <use x="223.4375" xlink:href="#DejaVuSans-1074"/>
       <use x="282.373047" xlink:href="#DejaVuSans-1086"/>
       <use x="343.554688" xlink:href="#DejaVuSans-1075"/>
       <use x="396.09375" xlink:href="#DejaVuSans-1088"/>
       <use x="459.570312" xlink:href="#DejaVuSans-1072"/>
       <use x="520.849609" xlink:href="#DejaVuSans-1076"/>
       <use x="589.990234" xlink:href="#DejaVuSans-1089"/>
       <use x="644.970703" xlink:href="#DejaVuSans-1100"/>
       <use x="703.90625" xlink:href="#DejaVuSans-1082"/>
       <use x="764.306641" xlink:href="#DejaVuSans-1072"/>
      </g>
     </g>
    </g>
    <g id="xtick_14">
     <g id="text_14">
      <!-- Рівненська -->
      <defs>
       <path d="M 19.671875 64.796875 
L 19.671875 37.40625 
L 32.078125 37.40625 
Q 38.96875 37.40625 42.71875 40.96875 
Q 46.484375 44.53125 46.484375 51.125 
Q 46.484375 57.671875 42.71875 61.234375 
Q 38.96875 64.796875 32.078125 64.796875 
z
M 9.8125 72.90625 
L 32.078125 72.90625 
Q 44.34375 72.90625 50.609375 67.359375 
Q 56.890625 61.8125 56.890625 51.125 
Q 56.890625 40.328125 50.609375 34.8125 
Q 44.34375 29.296875 32.078125 29.296875 
L 19.671875 29.296875 
L 19.671875 0 
L 9.8125 0 
z
" id="DejaVuSans-1056"/>
      </defs>
      <g transform="translate(580.054375 307.194375)rotate(-90)scale(0.06 -0.06)">
       <use xlink:href="#DejaVuSans-1056"/>
       <use x="60.302734" xlink:href="#DejaVuSans-1110"/>
       <use x="88.085938" xlink:href="#DejaVuSans-1074"/>
       <use x="147.021484" xlink:href="#DejaVuSans-1085"/>
       <use x="212.402344" xlink:href="#DejaVuSans-1077"/>
       <use x="273.925781" xlink:href="#DejaVuSans-1085"/>
       <use x="339.306641" xlink:href="#DejaVuSans-1089"/>
       <use x="394.287109" xlink:href="#DejaVuSans-1100"/>
       <use x="453.222656" xlink:href="#DejaVuSans-1082"/>
       <use x="513.623047" xlink:href="#DejaVuSans-1072"/>
      </g>
     </g>
    </g>
    <g id="xtick_15">
     <g id="text_15">
      <!-- Черкаська -->
      <defs>
       <path d="M 48.828125 0 
L 48.828125 29.890625 
L 28.46875 29.890625 
Q 19.390625 29.890625 13.96875 35.578125 
Q 8.546875 41.265625 8.546875 52.875 
L 8.546875 72.90625 
L 18.359375 72.90625 
L 18.359375 53.65625 
Q 18.359375 45.90625 21.390625 42.046875 
Q 24.421875 38.1875 30.46875 38.1875 
L 48.828125 38.1875 
L 48.828125 72.90625 
L 58.734375 72.90625 
L 58.734375 0 
z
" id="DejaVuSans-1063"/>
      </defs>
      <g transform="translate(619.940208 305.7525)rotate(-90)scale(0.06 -0.06)">
       <use xlink:href="#DejaVuSans-1063"/>
       <use x="68.554688" xlink:href="#DejaVuSans-1077"/>
       <use x="130.078125" xlink:href="#DejaVuSans-1088"/>
       <use x="193.554688" xlink:href="#DejaVuSans-1082"/>
       <use x="253.955078" xlink:href="#DejaVuSans-1072"/>
       <use x="315.234375" xlink:href="#DejaVuSans-1089"/>
       <use x="370.214844" xlink:href="#DejaVuSans-1100"/>
       <use x="429.150391" xlink:href="#DejaVuSans-1082"/>
       <use x="489.550781" xlink:href="#DejaVuSans-1072"/>
      </g>
     </g>
    </g>
    <g id="xtick_16">
     <g id="text_16">
      <!-- Чернігівська -->
      <g transform="translate(659.826042 312.396563)rotate(-90)scale(0.06 -0.06)">
       <use xlink:href="#DejaVuSans-1063"/>
       <use x="68.554688" xlink:href="#DejaVuSans-1077"/>
       <use x="130.078125" xlink:href="#DejaVuSans-1088"/>
       <use x="193.554688" xlink:href="#DejaVuSans-1085"/>
       <use x="258.935547" xlink:href="#DejaVuSans-1110"/>
       <use x="286.71875" xlink:href="#DejaVuSans-1075"/>
       <use x="339.257812" xlink:href="#DejaVuSans-1110"/>
       <use x="367.041016" xlink:href="#DejaVuSans-1074"/>
       <use x="425.976562" xlink:href="#DejaVuSans-1089"/>
       <use x="480.957031" xlink:href="#DejaVuSans-1100"/>
       <use x="539.892578" xlink:href="#DejaVuSans-1082"/>
       <use x="600.292969" xlink:href="#DejaVuSans-1072"/>
      </g>
     </g>
    </g>
    <g id="xtick_17">
     <g id="text_17">
      <!-- Чернівецька -->
      <g transform="translate(699.711875 312.053437)rotate(-90)scale(0.06 -0.06)">
       <use xlink:href="#DejaVuSans-1063"/>
       <use x="68.554688" xlink:href="#DejaVuSans-1077"/>
       <use x="130.078125" xlink:href="#DejaVuSans-1088"/>
       <use x="193.554688" xlink:href="#DejaVuSans-1085"/>
       <use x="258.935547" xlink:href="#DejaVuSans-1110"/>
       <use x="286.71875" xlink:href="#DejaVuSans-1074"/>
       <use x="345.654297" xlink:href="#DejaVuSans-1077"/>
       <use x="407.177734" xlink:href="#DejaVuSans-1094"/>
       <use x="475.244141" xlink:href="#DejaVuSans-1100"/>
       <use x="534.179688" xlink:href="#DejaVuSans-1082"/>
       <use x="594.580078" xlink:href="#DejaVuSans-1072"/>
      </g>
     </g>
    </g>
    <g id="xtick_18">
     <g id="text_18">
      <!-- Полтавська -->
      <defs>
       <path d="M 65.375 72.90625 
L 65.375 0 
L 55.515625 0 
L 55.515625 64.59375 
L 19.671875 64.59375 
L 19.671875 0 
L 9.8125 0 
L 9.8125 72.90625 
z
" id="DejaVuSans-1055"/>
      </defs>
      <g transform="translate(739.597708 309.563438)rotate(-90)scale(0.06 -0.06)">
       <use xlink:href="#DejaVuSans-1055"/>
       <use x="75.195312" xlink:href="#DejaVuSans-1086"/>
       <use x="136.376953" xlink:href="#DejaVuSans-1083"/>
       <use x="200.292969" xlink:href="#DejaVuSans-1090"/>
       <use x="258.544922" xlink:href="#DejaVuSans-1072"/>
       <use x="319.824219" xlink:href="#DejaVuSans-1074"/>
       <use x="378.759766" xlink:href="#DejaVuSans-1089"/>
       <use x="433.740234" xlink:href="#DejaVuSans-1100"/>
       <use x="492.675781" xlink:href="#DejaVuSans-1082"/>
       <use x="553.076172" xlink:href="#DejaVuSans-1072"/>
      </g>
     </g>
    </g>
    <g id="xtick_19">
     <g id="text_19">
      <!-- Тернопільська -->
      <defs>
       <path d="M -0.296875 72.90625 
L 61.375 72.90625 
L 61.375 64.59375 
L 35.5 64.59375 
L 35.5 0 
L 25.59375 0 
L 25.59375 64.59375 
L -0.296875 64.59375 
z
" id="DejaVuSans-1058"/>
      </defs>
      <g transform="translate(779.483542 318.556875)rotate(-90)scale(0.06 -0.06)">
       <use xlink:href="#DejaVuSans-1058"/>
       <use x="61.083984" xlink:href="#DejaVuSans-1077"/>
       <use x="122.607422" xlink:href="#DejaVuSans-1088"/>
       <use x="186.083984" xlink:href="#DejaVuSans-1085"/>
       <use x="251.464844" xlink:href="#DejaVuSans-1086"/>
       <use x="312.646484" xlink:href="#DejaVuSans-1087"/>
       <use x="378.027344" xlink:href="#DejaVuSans-1110"/>
       <use x="405.810547" xlink:href="#DejaVuSans-1083"/>
       <use x="469.726562" xlink:href="#DejaVuSans-1100"/>
       <use x="528.662109" xlink:href="#DejaVuSans-1089"/>
       <use x="583.642578" xlink:href="#DejaVuSans-1100"/>
       <use x="642.578125" xlink:href="#DejaVuSans-1082"/>
       <use x="702.978516" xlink:href="#DejaVuSans-1072"/>
      </g>
     </g>
    </g>
    <g id="xtick_20">
     <g id="text_20">
      <!-- Хмельницька -->
      <g transform="translate(819.369375 315.1425)rotate(-90)scale(0.06 -0.06)">
       <use xlink:href="#DejaVuSans-1061"/>
       <use x="68.505859" xlink:href="#DejaVuSans-1084"/>
       <use x="143.945312" xlink:href="#DejaVuSans-1077"/>
       <use x="205.46875" xlink:href="#DejaVuSans-1083"/>
       <use x="269.384766" xlink:href="#DejaVuSans-1100"/>
       <use x="328.320312" xlink:href="#DejaVuSans-1085"/>
       <use x="393.701172" xlink:href="#DejaVuSans-1080"/>
       <use x="458.691406" xlink:href="#DejaVuSans-1094"/>
       <use x="526.757812" xlink:href="#DejaVuSans-1100"/>
       <use x="585.693359" xlink:href="#DejaVuSans-1082"/>
       <use x="646.09375" xlink:href="#DejaVuSans-1072"/>
      </g>
     </g>
    </g>
    <g id="xtick_21">
     <g id="text_21">
      <!-- Житомирська -->
      <defs>
       <path d="M 48.921875 72.90625 
L 58.796875 72.90625 
L 58.796875 36.859375 
L 92.09375 72.90625 
L 104.046875 72.90625 
L 77.4375 44.140625 
L 105.765625 0 
L 95.453125 0 
L 71.390625 37.546875 
L 58.796875 23.921875 
L 58.796875 0 
L 48.921875 0 
L 48.921875 23.921875 
L 36.328125 37.546875 
L 12.25 0 
L 1.953125 0 
L 30.28125 44.140625 
L 3.65625 72.90625 
L 15.625 72.90625 
L 48.921875 36.859375 
z
" id="DejaVuSans-1046"/>
      </defs>
      <g transform="translate(859.255208 316.599375)rotate(-90)scale(0.06 -0.06)">
       <use xlink:href="#DejaVuSans-1046"/>
       <use x="107.714844" xlink:href="#DejaVuSans-1080"/>
       <use x="172.705078" xlink:href="#DejaVuSans-1090"/>
       <use x="230.957031" xlink:href="#DejaVuSans-1086"/>
       <use x="292.138672" xlink:href="#DejaVuSans-1084"/>
       <use x="367.578125" xlink:href="#DejaVuSans-1080"/>
       <use x="432.568359" xlink:href="#DejaVuSans-1088"/>
       <use x="496.044922" xlink:href="#DejaVuSans-1089"/>
       <use x="551.025391" xlink:href="#DejaVuSans-1100"/>
       <use x="609.960938" xlink:href="#DejaVuSans-1082"/>
       <use x="670.361328" xlink:href="#DejaVuSans-1072"/>
      </g>
     </g>
    </g>
    <g id="xtick_22">
     <g id="text_22">
      <!-- Волинська -->
      <defs>
       <path d="M 19.671875 34.8125 
L 19.671875 8.109375 
L 35.5 8.109375 
Q 43.453125 8.109375 47.28125 11.40625 
Q 51.125 14.703125 51.125 21.484375 
Q 51.125 28.328125 47.28125 31.5625 
Q 43.453125 34.8125 35.5 34.8125 
z
M 19.671875 64.796875 
L 19.671875 42.828125 
L 34.28125 42.828125 
Q 41.5 42.828125 45.03125 45.53125 
Q 48.578125 48.25 48.578125 53.8125 
Q 48.578125 59.328125 45.03125 62.0625 
Q 41.5 64.796875 34.28125 64.796875 
z
M 9.8125 72.90625 
L 35.015625 72.90625 
Q 46.296875 72.90625 52.390625 68.21875 
Q 58.5 63.53125 58.5 54.890625 
Q 58.5 48.1875 55.375 44.234375 
Q 52.25 40.28125 46.1875 39.3125 
Q 53.46875 37.75 57.5 32.78125 
Q 61.53125 27.828125 61.53125 20.40625 
Q 61.53125 10.640625 54.890625 5.3125 
Q 48.25 0 35.984375 0 
L 9.8125 0 
z
" id="DejaVuSans-1042"/>
      </defs>
      <g transform="translate(899.141042 306.28125)rotate(-90)scale(0.06 -0.06)">
       <use xlink:href="#DejaVuSans-1042"/>
       <use x="68.603516" xlink:href="#DejaVuSans-1086"/>
       <use x="129.785156" xlink:href="#DejaVuSans-1083"/>
       <use x="193.701172" xlink:href="#DejaVuSans-1080"/>
       <use x="258.691406" xlink:href="#DejaVuSans-1085"/>
       <use x="324.072266" xlink:href="#DejaVuSans-1089"/>
       <use x="379.052734" xlink:href="#DejaVuSans-1100"/>
       <use x="437.988281" xlink:href="#DejaVuSans-1082"/>
       <use x="498.388672" xlink:href="#DejaVuSans-1072"/>
      </g>
     </g>
    </g>
    <g id="xtick_23">
     <g id="text_23">
      <!-- Вінницька -->
      <g transform="translate(939.026875 305.14875)rotate(-90)scale(0.06 -0.06)">
       <use xlink:href="#DejaVuSans-1042"/>
       <use x="68.603516" xlink:href="#DejaVuSans-1110"/>
       <use x="96.386719" xlink:href="#DejaVuSans-1085"/>
       <use x="161.767578" xlink:href="#DejaVuSans-1085"/>
       <use x="227.148438" xlink:href="#DejaVuSans-1080"/>
       <use x="292.138672" xlink:href="#DejaVuSans-1094"/>
       <use x="360.205078" xlink:href="#DejaVuSans-1100"/>
       <use x="419.140625" xlink:href="#DejaVuSans-1082"/>
       <use x="479.541016" xlink:href="#DejaVuSans-1072"/>
      </g>
     </g>
    </g>
    <g id="xtick_24">
     <g id="text_24">
      <!-- ІваноФранківська -->
      <defs>
       <path d="M 9.8125 72.90625 
L 19.671875 72.90625 
L 19.671875 0 
L 9.8125 0 
z
" id="DejaVuSans-1030"/>
       <path d="M 38.140625 57.90625 
Q 27.546875 56.9375 21.921875 51.953125 
Q 16.3125 46.96875 16.3125 37.359375 
Q 16.3125 27.734375 21.921875 22.78125 
Q 27.546875 17.828125 38.140625 16.84375 
z
M 48.046875 16.84375 
Q 58.640625 17.828125 64.203125 22.78125 
Q 69.78125 27.734375 69.78125 37.359375 
Q 69.78125 46.96875 64.203125 51.953125 
Q 58.640625 56.9375 48.046875 57.90625 
z
M 38.140625 8.6875 
Q 22.65625 9.8125 14.28125 17.109375 
Q 5.90625 24.421875 5.90625 37.359375 
Q 5.90625 50.296875 14.28125 57.640625 
Q 22.65625 64.984375 38.140625 66.109375 
L 38.140625 72.90625 
L 48.046875 72.90625 
L 48.046875 66.109375 
Q 63.53125 64.984375 71.84375 57.6875 
Q 80.171875 50.390625 80.171875 37.359375 
Q 80.171875 24.421875 71.84375 17.109375 
Q 63.53125 9.8125 48.046875 8.6875 
L 48.046875 0 
L 38.140625 0 
z
" id="DejaVuSans-1060"/>
      </defs>
      <g transform="translate(978.912708 328.814062)rotate(-90)scale(0.06 -0.06)">
       <use xlink:href="#DejaVuSans-1030"/>
       <use x="29.492188" xlink:href="#DejaVuSans-1074"/>
       <use x="88.427734" xlink:href="#DejaVuSans-1072"/>
       <use x="149.707031" xlink:href="#DejaVuSans-1085"/>
       <use x="215.087891" xlink:href="#DejaVuSans-1086"/>
       <use x="276.269531" xlink:href="#DejaVuSans-1060"/>
       <use x="362.353516" xlink:href="#DejaVuSans-1088"/>
       <use x="425.830078" xlink:href="#DejaVuSans-1072"/>
       <use x="487.109375" xlink:href="#DejaVuSans-1085"/>
       <use x="552.490234" xlink:href="#DejaVuSans-1082"/>
       <use x="612.890625" xlink:href="#DejaVuSans-1110"/>
       <use x="640.673828" xlink:href="#DejaVuSans-1074"/>
       <use x="699.609375" xlink:href="#DejaVuSans-1089"/>
       <use x="754.589844" xlink:href="#DejaVuSans-1100"/>
       <use x="813.525391" xlink:href="#DejaVuSans-1082"/>
       <use x="873.925781" xlink:href="#DejaVuSans-1072"/>
      </g>
     </g>
    </g>
   </g>
   <g id="matplotlib.axis_2">
    <g id="ytick_1">
     <g id="line2d_1">
      <defs>
       <path d="M 0 0 
L -3.5 0 
" id="m984781b5a7" style="stroke:#000000;stroke-width:0.8;"/>
      </defs>
      <g>
       <use style="stroke:#000000;stroke-width:0.8;" x="39.94" xlink:href="#m984781b5a7" y="265.7"/>
      </g>
     </g>
     <g id="text_25">
      <!-- 0.00 -->
      <defs>
       <path d="M 31.78125 66.40625 
Q 24.171875 66.40625 20.328125 58.90625 
Q 16.5 51.421875 16.5 36.375 
Q 16.5 21.390625 20.328125 13.890625 
Q 24.171875 6.390625 31.78125 6.390625 
Q 39.453125 6.390625 43.28125 13.890625 
Q 47.125 21.390625 47.125 36.375 
Q 47.125 51.421875 43.28125 58.90625 
Q 39.453125 66.40625 31.78125 66.40625 
z
M 31.78125 74.21875 
Q 44.046875 74.21875 50.515625 64.515625 
Q 56.984375 54.828125 56.984375 36.375 
Q 56.984375 17.96875 50.515625 8.265625 
Q 44.046875 -1.421875 31.78125 -1.421875 
Q 19.53125 -1.421875 13.0625 8.265625 
Q 6.59375 17.96875 6.59375 36.375 
Q 6.59375 54.828125 13.0625 64.515625 
Q 19.53125 74.21875 31.78125 74.21875 
z
" id="DejaVuSans-48"/>
       <path d="M 10.6875 12.40625 
L 21 12.40625 
L 21 0 
L 10.6875 0 
z
" id="DejaVuSans-46"/>
      </defs>
      <g transform="translate(10.674375 269.499219)scale(0.1 -0.1)">
       <use xlink:href="#DejaVuSans-48"/>
       <use x="63.623047" xlink:href="#DejaVuSans-46"/>
       <use x="95.410156" xlink:href="#DejaVuSans-48"/>
       <use x="159.033203" xlink:href="#DejaVuSans-48"/>
      </g>
     </g>
    </g>
    <g id="ytick_2">
     <g id="line2d_2">
      <g>
       <use style="stroke:#000000;stroke-width:0.8;" x="39.94" xlink:href="#m984781b5a7" y="235.621223"/>
      </g>
     </g>
     <g id="text_26">
      <!-- 0.25 -->
      <defs>
       <path d="M 19.1875 8.296875 
L 53.609375 8.296875 
L 53.609375 0 
L 7.328125 0 
L 7.328125 8.296875 
Q 12.9375 14.109375 22.625 23.890625 
Q 32.328125 33.6875 34.8125 36.53125 
Q 39.546875 41.84375 41.421875 45.53125 
Q 43.3125 49.21875 43.3125 52.78125 
Q 43.3125 58.59375 39.234375 62.25 
Q 35.15625 65.921875 28.609375 65.921875 
Q 23.96875 65.921875 18.8125 64.3125 
Q 13.671875 62.703125 7.8125 59.421875 
L 7.8125 69.390625 
Q 13.765625 71.78125 18.9375 73 
Q 24.125 74.21875 28.421875 74.21875 
Q 39.75 74.21875 46.484375 68.546875 
Q 53.21875 62.890625 53.21875 53.421875 
Q 53.21875 48.921875 51.53125 44.890625 
Q 49.859375 40.875 45.40625 35.40625 
Q 44.1875 33.984375 37.640625 27.21875 
Q 31.109375 20.453125 19.1875 8.296875 
z
" id="DejaVuSans-50"/>
       <path d="M 10.796875 72.90625 
L 49.515625 72.90625 
L 49.515625 64.59375 
L 19.828125 64.59375 
L 19.828125 46.734375 
Q 21.96875 47.46875 24.109375 47.828125 
Q 26.265625 48.1875 28.421875 48.1875 
Q 40.625 48.1875 47.75 41.5 
Q 54.890625 34.8125 54.890625 23.390625 
Q 54.890625 11.625 47.5625 5.09375 
Q 40.234375 -1.421875 26.90625 -1.421875 
Q 22.3125 -1.421875 17.546875 -0.640625 
Q 12.796875 0.140625 7.71875 1.703125 
L 7.71875 11.625 
Q 12.109375 9.234375 16.796875 8.0625 
Q 21.484375 6.890625 26.703125 6.890625 
Q 35.15625 6.890625 40.078125 11.328125 
Q 45.015625 15.765625 45.015625 23.390625 
Q 45.015625 31 40.078125 35.4375 
Q 35.15625 39.890625 26.703125 39.890625 
Q 22.75 39.890625 18.8125 39.015625 
Q 14.890625 38.140625 10.796875 36.28125 
z
" id="DejaVuSans-53"/>
      </defs>
      <g transform="translate(10.674375 239.420442)scale(0.1 -0.1)">
       <use xlink:href="#DejaVuSans-48"/>
       <use x="63.623047" xlink:href="#DejaVuSans-46"/>
       <use x="95.410156" xlink:href="#DejaVuSans-50"/>
       <use x="159.033203" xlink:href="#DejaVuSans-53"/>
      </g>
     </g>
    </g>
    <g id="ytick_3">
     <g id="line2d_3">
      <g>
       <use style="stroke:#000000;stroke-width:0.8;" x="39.94" xlink:href="#m984781b5a7" y="205.542446"/>
      </g>
     </g>
     <g id="text_27">
      <!-- 0.50 -->
      <g transform="translate(10.674375 209.341665)scale(0.1 -0.1)">
       <use xlink:href="#DejaVuSans-48"/>
       <use x="63.623047" xlink:href="#DejaVuSans-46"/>
       <use x="95.410156" xlink:href="#DejaVuSans-53"/>
       <use x="159.033203" xlink:href="#DejaVuSans-48"/>
      </g>
     </g>
    </g>
    <g id="ytick_4">
     <g id="line2d_4">
      <g>
       <use style="stroke:#000000;stroke-width:0.8;" x="39.94" xlink:href="#m984781b5a7" y="175.463669"/>
      </g>
     </g>
     <g id="text_28">
      <!-- 0.75 -->
      <defs>
       <path d="M 8.203125 72.90625 
L 55.078125 72.90625 
L 55.078125 68.703125 
L 28.609375 0 
L 18.3125 0 
L 43.21875 64.59375 
L 8.203125 64.59375 
z
" id="DejaVuSans-55"/>
      </defs>
      <g transform="translate(10.674375 179.262888)scale(0.1 -0.1)">
       <use xlink:href="#DejaVuSans-48"/>
       <use x="63.623047" xlink:href="#DejaVuSans-46"/>
       <use x="95.410156" xlink:href="#DejaVuSans-55"/>
       <use x="159.033203" xlink:href="#DejaVuSans-53"/>
      </g>
     </g>
    </g>
    <g id="ytick_5">
     <g id="line2d_5">
      <g>
       <use style="stroke:#000000;stroke-width:0.8;" x="39.94" xlink:href="#m984781b5a7" y="145.384892"/>
      </g>
     </g>
     <g id="text_29">
      <!-- 1.00 -->
      <defs>
       <path d="M 12.40625 8.296875 
L 28.515625 8.296875 
L 28.515625 63.921875 
L 10.984375 60.40625 
L 10.984375 69.390625 
L 28.421875 72.90625 
L 38.28125 72.90625 
L 38.28125 8.296875 
L 54.390625 8.296875 
L 54.390625 0 
L 12.40625 0 
z
" id="DejaVuSans-49"/>
      </defs>
      <g transform="translate(10.674375 149.184111)scale(0.1 -0.1)">
       <use xlink:href="#DejaVuSans-49"/>
       <use x="63.623047" xlink:href="#DejaVuSans-46"/>
       <use x="95.410156" xlink:href="#DejaVuSans-48"/>
       <use x="159.033203" xlink:href="#DejaVuSans-48"/>
      </g>
     </g>
    </g>
    <g id="ytick_6">
     <g id="line2d_6">
      <g>
       <use style="stroke:#000000;stroke-width:0.8;" x="39.94" xlink:href="#m984781b5a7" y="115.306115"/>
      </g>
     </g>
     <g id="text_30">
      <!-- 1.25 -->
      <g transform="translate(10.674375 119.105333)scale(0.1 -0.1)">
       <use xlink:href="#DejaVuSans-49"/>
       <use x="63.623047" xlink:href="#DejaVuSans-46"/>
       <use x="95.410156" xlink:href="#DejaVuSans-50"/>
       <use x="159.033203" xlink:href="#DejaVuSans-53"/>
      </g>
     </g>
    </g>
    <g id="ytick_7">
     <g id="line2d_7">
      <g>
       <use style="stroke:#000000;stroke-width:0.8;" x="39.94" xlink:href="#m984781b5a7" y="85.227338"/>
      </g>
     </g>
     <g id="text_31">
      <!-- 1.50 -->
      <g transform="translate(10.674375 89.026556)scale(0.1 -0.1)">
       <use xlink:href="#DejaVuSans-49"/>
       <use x="63.623047" xlink:href="#DejaVuSans-46"/>
       <use x="95.410156" xlink:href="#DejaVuSans-53"/>
       <use x="159.033203" xlink:href="#DejaVuSans-48"/>
      </g>
     </g>
    </g>
    <g id="ytick_8">
     <g id="line2d_8">
      <g>
       <use style="stroke:#000000;stroke-width:0.8;" x="39.94" xlink:href="#m984781b5a7" y="55.148561"/>
      </g>
     </g>
     <g id="text_32">
      <!-- 1.75 -->
      <g transform="translate(10.674375 58.947779)scale(0.1 -0.1)">
       <use xlink:href="#DejaVuSans-49"/>
       <use x="63.623047" xlink:href="#DejaVuSans-46"/>
       <use x="95.410156" xlink:href="#DejaVuSans-55"/>
       <use x="159.033203" xlink:href="#DejaVuSans-53"/>
      </g>
     </g>
    </g>
    <g id="ytick_9">
     <g id="line2d_9">
      <g>
       <use style="stroke:#000000;stroke-width:0.8;" x="39.94" xlink:href="#m984781b5a7" y="25.069784"/>
      </g>
     </g>
     <g id="text_33">
      <!-- 2.00 -->
      <g transform="translate(10.674375 28.869002)scale(0.1 -0.1)">
       <use xlink:href="#DejaVuSans-50"/>
       <use x="63.623047" xlink:href="#DejaVuSans-46"/>
       <use x="95.410156" xlink:href="#DejaVuSans-48"/>
       <use x="159.033203" xlink:href="#DejaVuSans-48"/>
      </g>
     </g>
    </g>
   </g>
   <g id="LineCollection_1">
    <path clip-path="url(#pf1a64ca33e)" d="M 179.540417 265.7 
L 179.540417 229.534568 
L 219.42625 229.534568 
L 219.42625 265.7 
" style="fill:none;stroke:#008000;stroke-width:1.5;"/>
    <path clip-path="url(#pf1a64ca33e)" d="M 139.654583 265.7 
L 139.654583 177.722508 
L 199.483333 177.722508 
L 199.483333 229.534568 
" style="fill:none;stroke:#008000;stroke-width:1.5;"/>
    <path clip-path="url(#pf1a64ca33e)" d="M 99.76875 265.7 
L 99.76875 133.80528 
L 169.568958 133.80528 
L 169.568958 177.722508 
" style="fill:none;stroke:#008000;stroke-width:1.5;"/>
    <path clip-path="url(#pf1a64ca33e)" d="M 59.882917 265.7 
L 59.882917 118.254593 
L 134.668854 118.254593 
L 134.668854 133.80528 
" style="fill:none;stroke:#008000;stroke-width:1.5;"/>
   </g>
   <g id="LineCollection_2">
    <path clip-path="url(#pf1a64ca33e)" d="M 339.08375 265.7 
L 339.08375 218.563188 
L 378.969583 218.563188 
L 378.969583 265.7 
" style="fill:none;stroke:#ff0000;stroke-width:1.5;"/>
    <path clip-path="url(#pf1a64ca33e)" d="M 299.197917 265.7 
L 299.197917 187.353795 
L 359.026667 187.353795 
L 359.026667 218.563188 
" style="fill:none;stroke:#ff0000;stroke-width:1.5;"/>
    <path clip-path="url(#pf1a64ca33e)" d="M 259.312083 265.7 
L 259.312083 145.338048 
L 329.112292 145.338048 
L 329.112292 187.353795 
" style="fill:none;stroke:#ff0000;stroke-width:1.5;"/>
    <path clip-path="url(#pf1a64ca33e)" d="M 458.74125 265.7 
L 458.74125 221.259865 
L 498.627083 221.259865 
L 498.627083 265.7 
" style="fill:none;stroke:#ff0000;stroke-width:1.5;"/>
    <path clip-path="url(#pf1a64ca33e)" d="M 618.284583 265.7 
L 618.284583 256.724907 
L 658.170417 256.724907 
L 658.170417 265.7 
" style="fill:none;stroke:#ff0000;stroke-width:1.5;"/>
    <path clip-path="url(#pf1a64ca33e)" d="M 578.39875 265.7 
L 578.39875 249.768536 
L 638.2275 249.768536 
L 638.2275 256.724907 
" style="fill:none;stroke:#ff0000;stroke-width:1.5;"/>
    <path clip-path="url(#pf1a64ca33e)" d="M 538.512917 265.7 
L 538.512917 242.914681 
L 608.313125 242.914681 
L 608.313125 249.768536 
" style="fill:none;stroke:#ff0000;stroke-width:1.5;"/>
    <path clip-path="url(#pf1a64ca33e)" d="M 737.942083 265.7 
L 737.942083 250.676736 
L 777.827917 250.676736 
L 777.827917 265.7 
" style="fill:none;stroke:#ff0000;stroke-width:1.5;"/>
    <path clip-path="url(#pf1a64ca33e)" d="M 937.37125 265.7 
L 937.37125 257.81783 
L 977.257083 257.81783 
L 977.257083 265.7 
" style="fill:none;stroke:#ff0000;stroke-width:1.5;"/>
    <path clip-path="url(#pf1a64ca33e)" d="M 897.485417 265.7 
L 897.485417 253.483178 
L 957.314167 253.483178 
L 957.314167 257.81783 
" style="fill:none;stroke:#ff0000;stroke-width:1.5;"/>
    <path clip-path="url(#pf1a64ca33e)" d="M 857.599583 265.7 
L 857.599583 251.126046 
L 927.399792 251.126046 
L 927.399792 253.483178 
" style="fill:none;stroke:#ff0000;stroke-width:1.5;"/>
    <path clip-path="url(#pf1a64ca33e)" d="M 817.71375 265.7 
L 817.71375 245.840553 
L 892.499688 245.840553 
L 892.499688 251.126046 
" style="fill:none;stroke:#ff0000;stroke-width:1.5;"/>
    <path clip-path="url(#pf1a64ca33e)" d="M 757.885 250.676736 
L 757.885 241.314722 
L 855.106719 241.314722 
L 855.106719 245.840553 
" style="fill:none;stroke:#ff0000;stroke-width:1.5;"/>
    <path clip-path="url(#pf1a64ca33e)" d="M 698.05625 265.7 
L 698.05625 233.547974 
L 806.495859 233.547974 
L 806.495859 241.314722 
" style="fill:none;stroke:#ff0000;stroke-width:1.5;"/>
    <path clip-path="url(#pf1a64ca33e)" d="M 573.413021 242.914681 
L 573.413021 209.271364 
L 752.276055 209.271364 
L 752.276055 233.547974 
" style="fill:none;stroke:#ff0000;stroke-width:1.5;"/>
    <path clip-path="url(#pf1a64ca33e)" d="M 478.684167 221.259865 
L 478.684167 198.226954 
L 662.844538 198.226954 
L 662.844538 209.271364 
" style="fill:none;stroke:#ff0000;stroke-width:1.5;"/>
    <path clip-path="url(#pf1a64ca33e)" d="M 418.855417 265.7 
L 418.855417 144.441362 
L 570.764352 144.441362 
L 570.764352 198.226954 
" style="fill:none;stroke:#ff0000;stroke-width:1.5;"/>
    <path clip-path="url(#pf1a64ca33e)" d="M 294.212188 145.338048 
L 294.212188 99.266841 
L 494.809884 99.266841 
L 494.809884 144.441362 
" style="fill:none;stroke:#ff0000;stroke-width:1.5;"/>
   </g>
   <g id="LineCollection_3">
    <path clip-path="url(#pf1a64ca33e)" d="M 97.275885 118.254593 
L 97.275885 22.938095 
L 394.511036 22.938095 
L 394.511036 99.266841 
" style="fill:none;stroke:#0000ff;stroke-width:1.5;"/>
   </g>
   <g id="patch_3">
    <path d="M 39.94 265.7 
L 39.94 10.8 
" style="fill:none;stroke:#000000;stroke-linecap:square;stroke-linejoin:miter;stroke-width:0.8;"/>
   </g>
   <g id="patch_4">
    <path d="M 997.2 265.7 
L 997.2 10.8 
" style="fill:none;stroke:#000000;stroke-linecap:square;stroke-linejoin:miter;stroke-width:0.8;"/>
   </g>
   <g id="patch_5">
    <path d="M 39.94 265.7 
L 997.2 265.7 
" style="fill:none;stroke:#000000;stroke-linecap:square;stroke-linejoin:miter;stroke-width:0.8;"/>
   </g>
   <g id="patch_6">
    <path d="M 39.94 10.8 
L 997.2 10.8 
" style="fill:none;stroke:#000000;stroke-linecap:square;stroke-linejoin:miter;stroke-width:0.8;"/>
   </g>
  </g>
 </g>
 <defs>
  <clipPath id="pf1a64ca33e">
   <rect height="254.9" width="957.26" x="39.94" y="10.8"/>
  </clipPath>
 </defs>
</svg>
